<svg width="1920" height="580" viewBox="0 0 1920 580" fill="none" xmlns="http://www.w3.org/2000/svg">
<mask id="mask0_940_1696" style="mask-type:alpha" maskUnits="userSpaceOnUse" x="0" y="0" width="1920" height="580">
<rect width="1920" height="580" rx="60" fill="#FDF1E6"/>
</mask>
<g mask="url(#mask0_940_1696)">
<path fill-rule="evenodd" clip-rule="evenodd" d="M1140 612.5C1010.5 816.145 1536.74 611.25 1563 612.5C1592.91 613.924 1673.98 593.641 1694.5 578.5C1848.5 484.111 1878.19 408.18 1652.19 461.528C1630.05 466.753 1559.69 466.659 1533.69 396.896C1528.91 369.404 1558.88 291.796 1519.69 267.631C1461.45 231.724 1467.19 352.269 1448.19 282.506C1448.19 144.007 1287.19 100.919 1287.19 214.283C1329.69 396.896 1231.69 424.595 1246.19 366.636C1278.55 237.349 1221.69 167.09 1119.19 294.816C1016.69 422.543 945.187 451.896 718.999 461.528C417.81 474.352 201.933 484.02 171.001 602C89.501 912.852 633.981 621.819 1097 578.5C1112 609.5 1090.5 711.345 1140 612.5Z" fill="#FFC692"/>
<path d="M1541.17 489.523C1564.65 587.407 1690.6 556.948 1594.26 501.932C1591.77 500.512 1589.21 498.857 1587.31 496.715C1566.26 472.96 1580.31 425.231 1624.83 440.097C1662.79 452.773 1663.59 478.691 1665.2 483.492" stroke="#D7984F" stroke-width="15"/>
<path d="M1058.35 547.746C1071.47 486.293 984.741 484.377 1019.78 530.693C1022.22 533.912 1024.63 537.272 1025.51 541.212C1029.41 558.681 1016.99 572.73 996.745 553.177C978.423 535.481 985.074 520.377 985.465 517.177" stroke="#EF7F1A" stroke-width="15"/>
</g>
</svg>
