<svg width="992" height="400" viewBox="0 0 992 400" fill="none" xmlns="http://www.w3.org/2000/svg">
<mask id="mask0_940_1961" style="mask-type:alpha" maskUnits="userSpaceOnUse" x="0" y="0" width="992" height="400">
<rect width="992" height="400" fill="#FDF1E6"/>
</mask>
<g mask="url(#mask0_940_1961)">
<path d="M316 139.934C345 197.369 377.529 284.1 435 221.543C502.512 148.056 473.338 218.333 459 236.5C429.141 274.333 526.45 263.472 493.5 221.543C464.241 184.31 522 88.5005 571.5 73.5003C615.176 60.2651 627.038 94.3633 628.3 124.357C658.458 69.256 779.763 13.9704 690.015 118.939C589.5 236.5 705 195 717 188C729 181 761.575 138.132 795.5 143.902C840.756 151.601 797.931 231.098 838 253.5C868.678 270.652 895.607 239.862 928 253.5C985.541 277.725 992 400 992 400H720H0C0 400 12.2818 303.5 18.5 285.5C24.7182 267.5 35.5 244 62 228.5C88.5 213 121.383 282.6 163 272C202.324 261.984 217.339 231.386 230.5 193C242.5 158 287 82.5 316 139.934Z" fill="#FFBC6D"/>
<path d="M291.988 375.413C315.92 426.766 381.408 396.589 324.666 376.877C321.959 375.937 319.147 374.903 317.023 372.98C304.248 361.412 307.362 335.243 332.887 338.347C355.434 341.089 358.824 355.44 360.267 357.932" stroke="#C05E05" stroke-width="15"/>
<path d="M634 142.5C590.5 145 626.5 197.5 643.845 163.989C651.661 151.721 667.438 161.707 654.698 178.686C640.42 197.716 670.036 212.087 718 192" stroke="#093F44" stroke-width="8"/>
</g>
</svg>
