<svg width="1920" height="580" viewBox="0 0 1920 580" fill="none" xmlns="http://www.w3.org/2000/svg">
<mask id="mask0_940_1720" style="mask-type:alpha" maskUnits="userSpaceOnUse" x="0" y="0" width="1920" height="580">
<rect width="1920" height="580" rx="60" fill="#FDF1E6"/>
</mask>
<g mask="url(#mask0_940_1720)">
<path fill-rule="evenodd" clip-rule="evenodd" d="M976.175 515.943C980.958 539.06 967.133 561.745 950.128 578.626C620.927 905.419 1367.96 650.382 1404.24 651.814C1446.62 653.487 1773.52 637.057 1802.58 619.27C1831.65 601.483 1824.21 317.287 1791.82 460.265C1769.35 559.397 1602.84 580.367 1653.72 516.446C1657.5 511.692 1662.33 507.854 1667.07 504.03C1691.11 484.633 1764.53 414.446 1734.01 301C1715.54 232.343 1397.11 222.822 1332.19 271.21C1268.88 318.4 1365.09 428.479 1322.56 384.07C1270.16 329.362 1318.23 260.029 1232.91 250.353C1225.16 249.473 1217.17 250.065 1209.54 251.886C1093.49 279.612 1254.36 350.35 1256.82 402.031C1260.78 485.674 1202.98 324.489 1110.6 301C888.437 258.606 896.94 419.017 831.766 483.181C766.591 547.346 697.268 601.852 479.257 591.455C304.468 583.12 732.594 619.268 831.764 619.269C862.587 455.872 960.68 441.054 976.175 515.943Z" fill="#0E5F66"/>
<path d="M1656 568.499C1633.98 458.754 1535.89 547.907 1605.42 575.459C1609.11 576.922 1612.9 578.525 1615.79 581.248C1632.38 596.871 1628.74 620.321 1593.9 612.615C1563.04 605.794 1560.44 586.039 1558.8 582.49" stroke="#FFDEB8" stroke-width="15"/>
<path d="M1547.75 297.114C1568.67 283.647 1543.32 257.241 1525.96 273.482C1523.44 275.842 1521.27 278.717 1518.08 280.05C1502.55 286.545 1478.67 273.032 1493.31 247.909C1500.96 234.779 1515.04 237.034 1522.66 237.014" stroke="#093F44" stroke-width="11"/>
<path d="M1094.05 421.755C1106.05 493.255 1219.45 471.757 1152.05 396.254C1093.91 342.755 1175.27 325.697 1181.05 371.948C1191.27 453.738 1271.85 394.946 1226.85 371.946" stroke="#093F44" stroke-width="14"/>
</g>
</svg>
