<svg width="992" height="400" viewBox="0 0 992 400" fill="none" xmlns="http://www.w3.org/2000/svg">
<mask id="mask0_3261_53" style="mask-type:alpha" maskUnits="userSpaceOnUse" x="0" y="0" width="992" height="400">
<path d="M0 60C0 26.8629 26.8629 0 60 0H932C965.137 0 992 26.8629 992 60V340C992 373.137 965.137 400 932 400H60C26.8629 400 0 373.137 0 340V60Z" fill="#FDF1E6"/>
</mask>
<g mask="url(#mask0_3261_53)">
<path d="M335 342.5C335 342.5 363.285 262.162 328.5 258.5C271.5 252.5 276.833 323.962 217.308 347.418C177.711 370.243 149.425 343.936 86 364.827L185.167 412.798L218.836 424.893C229.078 428.572 239.608 431.392 250.318 433.324L398.219 459.995C461.294 460.382 834.131 439.598 852.07 356.243C915.846 59.9072 653.672 346.258 598.657 306.024C573.559 287.67 649.587 253.686 660 220.5C672.412 180.941 647.5 144 595.854 155.148C549.366 165.183 536 219.14 518.5 242.5C509.78 254.14 505.041 250.387 498.5 244.5C483.5 231 521.334 203.02 493 169.5C422.247 85.798 318.124 190.714 345.5 258.5C370.029 319.237 335 342.5 335 342.5Z" fill="#EF7F1A"/>
</g>
</svg>
