<svg width="1920" height="588" viewBox="0 0 1920 588" fill="none" xmlns="http://www.w3.org/2000/svg">
<g filter="url(#filter0_d_940_869)">
<mask id="mask0_940_869" style="mask-type:alpha" maskUnits="userSpaceOnUse" x="0" y="0" width="1920" height="580">
<path d="M0 60C0 26.8629 26.8629 0 60 0H1860C1893.14 0 1920 26.8629 1920 60V520C1920 553.137 1893.14 580 1860 580H60C26.8629 580 0 553.137 0 520V60Z" fill="#FDF1E6"/>
</mask>
<g mask="url(#mask0_940_869)">
<path fill-rule="evenodd" clip-rule="evenodd" d="M1361.84 206.657C1434.95 146.656 1570.86 92.1622 1604.39 180.602V180.602C1628.56 238.54 1395.04 372.268 1644.11 332.213C1711.41 321.391 1653.32 606.595 1676.54 603.387C1483.53 649.685 1615.21 434.43 1615.21 413.987C1572.73 411.982 1494.67 549.273 1522.62 603.387C1543.5 643.82 1090.21 640.853 1038.63 603.387C1107.14 520.412 1058.97 456.281 1040.75 393.326C1021.84 328.024 1007.64 240.547 1016.34 214.378C1036.87 152.697 1107.93 137.382 1132.99 139.205C1203.24 144.317 1206.59 227.639 1352.52 214.379C1355.69 211.729 1358.79 209.155 1361.84 206.657Z" fill="#EF7F1A"/>
<path d="M1674.91 572.67C1753.27 552.127 1726.97 451.55 1684.43 528.883C1683.05 531.392 1681.47 533.979 1679.32 535.862C1660.28 552.475 1622.48 541.779 1633.6 505.987C1643.19 475.133 1664.09 474.046 1667.94 472.663" stroke="#C05E05" stroke-width="15"/>
<path d="M1003.45 413.83C1003.45 465.83 1079.45 442.355 1045.45 406.33C1003.45 361.83 1056.76 334.565 1090.3 394.898" stroke="#FFAEAE" stroke-width="15"/>
</g>
</g>
<defs>
<filter id="filter0_d_940_869" x="991.949" y="134.158" width="744.773" height="453.842" filterUnits="userSpaceOnUse" color-interpolation-filters="sRGB">
<feFlood flood-opacity="0" result="BackgroundImageFix"/>
<feColorMatrix in="SourceAlpha" type="matrix" values="0 0 0 0 0 0 0 0 0 0 0 0 0 0 0 0 0 0 127 0" result="hardAlpha"/>
<feOffset dy="4"/>
<feGaussianBlur stdDeviation="2"/>
<feComposite in2="hardAlpha" operator="out"/>
<feColorMatrix type="matrix" values="0 0 0 0 0 0 0 0 0 0 0 0 0 0 0 0 0 0 0.25 0"/>
<feBlend mode="normal" in2="BackgroundImageFix" result="effect1_dropShadow_940_869"/>
<feBlend mode="normal" in="SourceGraphic" in2="effect1_dropShadow_940_869" result="shape"/>
</filter>
</defs>
</svg>
