<svg width="259" height="139" viewBox="0 0 259 139" fill="none" xmlns="http://www.w3.org/2000/svg">
<path d="M4.39169 60.6265C1.53634 49.4625 -0.600718 29.8271 4.84189 3.39914C9.24342 -17.9736 40.561 69.0365 74.9031 53.8802C102.032 41.9072 88.7527 46.5468 111.637 31.6955C134.521 16.8443 154.262 29.3697 174.789 61.2193C195.315 93.0689 246.387 52.9883 255.521 37.0635C264.655 21.1387 253.164 94.1424 251.003 94.1424C248.842 94.1424 260.628 150.148 111.637 134.223C107.122 133.74 40.8242 139.949 36.1099 138.875C32.3385 138.016 19.4135 130.525 13.4224 126.887C19.4462 126.588 29.88 105.901 18.3331 94.1424C-6.69726 68.6541 -0.365902 76.404 4.39169 60.6265Z" fill="#F39845"/>
</svg>
