<svg width="992" height="400" viewBox="0 0 992 400" fill="none" xmlns="http://www.w3.org/2000/svg">
<mask id="mask0_3125_98" style="mask-type:alpha" maskUnits="userSpaceOnUse" x="0" y="0" width="992" height="400">
<rect width="992" height="400" fill="#FDF1E6"/>
</mask>
<g mask="url(#mask0_3125_98)">
<path fill-rule="evenodd" clip-rule="evenodd" d="M342.625 405.212C238.596 596.852 635.141 462.085 656.233 463.262C680.263 464.602 777.663 451.439 794.143 437.191C917.857 348.366 961.237 312.162 779.684 362.365C761.903 367.282 705.375 367.194 684.488 301.544C680.647 275.672 715.973 200.094 684.488 177.353C637.706 143.562 615.388 259.612 600.125 193.962C600.125 63.6273 468.625 29.6669 468.625 136.348C484.282 233.315 442.305 256.247 448.625 226.661C474.616 104.996 433.848 85.2837 351.507 205.481C269.166 325.678 158.158 296.483 52.4998 362.366C-67.5002 437.191 -41.3338 464.144 330.624 423.378C302.509 156.433 426.625 334.622 342.625 405.212Z" fill="#FFC692"/>
<path d="M622.751 292.741C638.351 364.183 721.577 342.596 659.576 302.691C657.057 301.07 654.472 299.282 652.724 296.846C639.958 279.043 649.595 245.732 678.724 256.416C704.123 265.733 704.66 284.78 705.739 288.308" stroke="#D7984F" stroke-width="15"/>
<path d="M412.727 404.513C421.797 350.46 348.49 345.392 378.983 387.433C381.359 390.708 383.799 394.119 384.704 398.106C388.196 413.501 378.124 425 360.473 407.079C344.284 390.641 349.438 377.433 349.664 374.598" stroke="#EF7F1A" stroke-width="15"/>
</g>
</svg>
