<svg width="1082" height="287" viewBox="0 0 1082 287" fill="none" xmlns="http://www.w3.org/2000/svg">
<path d="M156.705 78.0807C198.916 218.526 77.9178 131.906 17.749 63.8935C27.3465 74.7422 -50.2677 121.058 59.4772 182.394C108.537 209.814 64.2066 258.057 38.6132 258.752C64.0675 267.237 118.982 284.706 135.006 286.708C155.035 289.212 436.717 274.735 455.897 275.86C1088.92 312.996 1038.84 182.394 1048.02 182.394C1057.2 182.394 1106.02 12.1538 1067.22 49.2896C1028.41 86.4254 811.423 179.891 724.211 105.62C636.998 31.348 553.124 2.13948 455.897 36.7717C358.67 71.404 325.267 135.899 255.601 78.0807C213.873 43.4491 109.552 -78.8077 156.705 78.0807Z" fill="#F39845"/>
</svg>
