<svg width="1920" height="580" viewBox="0 0 1920 580" fill="none" xmlns="http://www.w3.org/2000/svg">
<mask id="mask0_940_1803" style="mask-type:alpha" maskUnits="userSpaceOnUse" x="0" y="0" width="1920" height="580">
<rect width="1920" height="580" rx="60" fill="#FDF1E6"/>
</mask>
<g mask="url(#mask0_940_1803)">
<path d="M200.5 210.5C234 291 273.383 423.832 482.5 481.003C546.5 498.5 761.821 580.357 904.5 422.5C975 344.5 1108 324.5 1062 432.5C1051.39 457.409 1054.5 481.003 1108 481.003C1236.5 463.001 1193.55 424.782 1175 381.5C1137.5 294 1150 215 1239.5 210.5C1294.54 207.733 1307.24 268.208 1308.38 309.555C1321.4 252.278 1364.05 163.058 1413 145.003C1472.05 123.223 1579.69 162.816 1612.5 320.5C1628 394.998 1660.06 362 1658 333C1653.5 269.5 1722.12 205.401 1777.5 300.502C1869.5 458.501 1680.17 675.667 1554.5 795L836.5 677.502L324 616.503L339.5 600L315.611 581.205C206.639 495.47 160.216 352.423 198.077 219.036L200.5 210.5Z" fill="#FFAEAE"/>
<path d="M1610.15 472.123C1635.76 555.913 1745.57 498.835 1666.89 466.219C1663.2 464.688 1659.46 462.85 1656.63 460.022C1638.01 441.388 1642.91 414.165 1682.24 424.708C1716.73 433.95 1718.75 456.618 1720.43 460.746" stroke="#FFDEB8" stroke-width="15"/>
<path d="M900.427 482.875C879.239 397.514 788.942 437.927 838.233 481.713C842.69 485.672 848.339 488.187 853.003 491.9C872.896 507.734 842.939 530.658 813.855 521.067C790.017 513.206 798.961 481.559 797.45 477.242" stroke="#EF7F1A" stroke-width="15"/>
</g>
</svg>
