<svg width="1920" height="400" viewBox="0 0 1920 400" fill="none" xmlns="http://www.w3.org/2000/svg">
<mask id="mask0_3361_67" style="mask-type:alpha" maskUnits="userSpaceOnUse" x="0" y="0" width="1920" height="400">
<path d="M0 30C0 13.4315 13.4315 0 30 0H1890C1906.57 0 1920 13.4315 1920 30V370C1920 386.569 1906.57 400 1890 400H30C13.4315 400 0 386.569 0 370V30Z" fill="#0E5F66"/>
</mask>
<g mask="url(#mask0_3361_67)">
<path d="M1113.51 369.999C980.203 322.184 717.007 499.999 776.507 340.499C827.007 261.499 754.507 160.999 465.007 271.999C361.04 311.862 357.174 230.499 330.008 271.999C247.342 376.313 246.217 415.703 330.008 478.499H406.007H578.007H877.507H1227.51H1615.51C1681.35 403.935 1756.65 385.248 1615.51 186C1615.51 186 1611.05 133.45 1488.51 86.4992C1227.51 -13.5006 1129.01 197.999 1187.51 280.499C1237.91 351.587 1205.51 402.999 1113.51 369.999Z" fill="#093F44"/>
</g>
</svg>
