<svg width="992" height="400" viewBox="0 0 992 400" fill="none" xmlns="http://www.w3.org/2000/svg">
<mask id="mask0_3124_78" style="mask-type:alpha" maskUnits="userSpaceOnUse" x="0" y="0" width="992" height="400">
<rect width="992" height="400" fill="#FDF1E6"/>
</mask>
<g mask="url(#mask0_3124_78)">
<path d="M48.4191 318.445C108 299.5 191.234 386.651 264.185 278.283C300.232 224.737 368.234 211.008 344.714 285.148C339.289 302.248 340.879 318.445 368.234 318.445C433.935 306.087 411.975 279.85 402.49 250.137C383.317 190.07 389.708 135.837 435.469 132.748C465.034 130.752 472.916 171.991 474.51 196.942C478.039 159.881 496.015 97.0751 524.179 87.785C569 73 609.408 100.014 626.182 208.262C634.107 259.404 650.497 236.751 649.446 216.843C647.145 173.251 682.233 129.248 710.546 194.533C757.585 302.998 660.78 452.079 596.527 534L0.5 400C0.5 400 1.99988 362 13.4999 344.5C24.9999 327 32.2045 323.601 48.4191 318.445Z" fill="#FFAEAE"/>
<path d="M638.127 173.017C626.993 224.2 689.298 219.268 667.743 185.585C665.366 181.871 662.691 178.093 662.24 173.705C660.865 160.35 670.285 149.303 684.282 163.101C697.528 176.159 692.184 189.264 691.812 191.95" stroke="#FFDEB8" stroke-width="6"/>
<path d="M438.466 251.115C426.58 207.947 382.179 224.195 402.281 246.547C406.29 251.005 413.015 252.86 415.956 258.072C420.461 266.055 406.55 274.489 392.685 269.606C379.847 265.086 384.229 248.686 383.367 246.402" stroke="#EF7F1A" stroke-width="10"/>
</g>
</svg>
