<svg width="1920" height="580" viewBox="0 0 1920 580" fill="none" xmlns="http://www.w3.org/2000/svg">
<mask id="mask0_940_1753" style="mask-type:alpha" maskUnits="userSpaceOnUse" x="0" y="0" width="1920" height="580">
<rect width="1920" height="580" rx="60" fill="#FDF1E6"/>
</mask>
<g mask="url(#mask0_940_1753)">
<path d="M559 466.501C394.2 546.901 245 411.334 191 333.501C86.0001 247 72.4996 508.5 85.9999 582.5C85.9999 675.999 132.17 672.341 136.5 681C143.3 694.6 412 686.667 545.5 681C904.167 713.334 1869.9 842.7 1841.5 721.5C1813.1 600.3 1655.5 518.499 1743.5 483.5C1759.33 449.5 1779.3 283.9 1656.5 207.5C1503 112 1439 170.001 1471.5 219.5C1494.81 254.999 1615.49 303.072 1586 309.5C1547 317.999 1524.2 280.85 1272.5 179C1165 135.5 1009.5 299.001 1142.5 382.001C1188.11 410.462 1223.5 419.001 1247.5 456.001C1266.7 485.601 1194.5 496.334 1174 500.501C1147.17 511.834 1075.2 510.401 1002 414.001C910.5 293.501 842 398.999 879 437C897.5 456.001 894.5 489.5 873 507C851.5 524.5 811.571 524.5 837.5 491.5C887 428.5 765 366.001 559 466.501Z" fill="#0E5F66"/>
<path d="M1003.11 559.797C1026.59 657.68 1152.54 627.222 1056.19 572.205C1053.71 570.786 1051.15 569.131 1049.25 566.988C1028.19 543.234 1042.25 495.504 1086.76 510.37C1124.72 523.047 1125.53 548.964 1127.14 553.765" stroke="#E1E9B3" stroke-width="15"/>
<path d="M1645.59 489.17C1756.92 473.828 1736.72 330.376 1664.88 432.041C1663.23 434.379 1661.32 436.762 1659.02 438.47C1630.44 459.719 1578.44 438.922 1599.91 390.934C1618.14 350.203 1646.98 352.154 1652.49 350.89" stroke="#FFDEB8" stroke-width="15"/>
</g>
</svg>
