<svg viewBox="0 0 1920 580" fill="none" xmlns="http://www.w3.org/2000/svg">
<mask id="mask0_940_1665" style="mask-type:alpha" maskUnits="userSpaceOnUse" x="0" y="0" width="1920" height="580">
<rect width="1920" height="580" rx="60" fill="#FDF1E6"/>
</mask>
<g mask="url(#mask0_940_1665)">
<path d="M1079.66 509.628C1242.26 692.404 1613.23 630.25 1625.05 611.744C1513.67 451.914 1745.54 514.287 1745.54 334.407C1799.23 234.17 1690.21 146.728 1601.66 238.063C1524.13 318.04 1514.79 424.068 1355.52 221.351C1325.38 182.995 1290.11 175.497 1259.29 185.342C1175.43 212.126 1169.63 340.615 1110.55 410.054C1093.7 429.86 1091.78 416.27 1090.57 401.806C1079.84 273.142 1014.63 426.481 862.1 521.52C751.271 590.573 711.177 587.718 737.348 603.382C925.852 649.024 981.588 571.085 1009.49 512.973C1027.17 476.146 1054.26 481.07 1079.66 509.628Z" fill="#E1E9B3"/>
<path d="M1599.21 258.173C1540.96 272.529 1558.91 346.957 1591.1 291.616C1592.54 289.141 1594.11 286.583 1596.38 284.844C1610.96 273.706 1637.75 282.27 1629.24 308.282C1621.76 331.153 1606.18 331.732 1603.3 332.72" stroke="#FFAEAE" stroke-width="12"/>
<path d="M1081.85 545.754C1118.97 658.933 1262.13 609.807 1143.93 554.672C1141.31 553.452 1138.62 551.962 1136.46 550.055C1110.16 526.918 1111.02 485.14 1155.23 490.797C1161.15 491.554 1165.72 495.996 1168.38 501.343C1181.33 527.474 1199.76 526.413 1224.82 525.989" stroke="#F2994A" stroke-width="13"/>
</g>
</svg>
