<svg viewBox="0 0 387 254" fill="none" xmlns="http://www.w3.org/2000/svg">
<mask id="mask0_940_726" style="mask-type:alpha" maskUnits="userSpaceOnUse" x="0" y="0" width="387" height="254">
<rect width="387" height="254" rx="20" fill="#7BB558"/>
</mask>
<g mask="url(#mask0_940_726)">
</g>
<mask id="mask1_940_726" style="mask-type:alpha" maskUnits="userSpaceOnUse" x="0" y="0" width="387" height="254">
<rect width="387" height="254" rx="20" fill="#7BB558"/>
</mask>
<g mask="url(#mask1_940_726)">
</g>
<mask id="mask2_940_726" style="mask-type:alpha" maskUnits="userSpaceOnUse" x="0" y="0" width="387" height="254">
<rect width="387" height="254" rx="20" fill="#FDF1E6"/>
</mask>
<g mask="url(#mask2_940_726)">
<path fill-rule="evenodd" clip-rule="evenodd" d="M151.114 462.431C108.124 429.136 155.191 374.916 123.696 334.326C92.8497 294.572 13.1897 293.712 -12.0007 252.211C-34.9298 214.435 -20.8228 168.428 11.1046 148.834C44.4583 128.364 95.7221 175.168 132.416 158.352C171.58 140.403 183.143 78.2662 224.774 60.5009C246.327 51.303 282.528 50.8103 317 85.0003C353.443 121.145 336.5 148.834 392.117 189C406.107 217.43 436.304 276.727 449.888 305.208C465.785 338.539 481.577 375.8 469.368 403.747C457.077 431.882 419.654 442.752 385.681 452.182C353.972 460.983 316.333 454.515 280.882 456.063C236.787 457.99 189.822 492.409 151.114 462.431Z" stroke="#D9D9D9"/>
</g>
</svg>
