<svg width="1200" height="600" viewBox="0 0 1200 600" fill="none" xmlns="http://www.w3.org/2000/svg">
<mask id="mask0_1610_149" style="mask-type:alpha" maskUnits="userSpaceOnUse" x="0" y="0" width="1200" height="600">
<rect width="1200" height="600" rx="20" fill="#FFEFDC"/>
</mask>
<g mask="url(#mask0_1610_149)">
<path d="M769.001 665C675.801 408.6 1028.17 361.833 1216 370.5L1228.5 501.5C1210.33 473.667 1124 429.3 924.001 474.5C724.001 519.7 869.668 617.5 942.501 665H769.001Z" fill="#FFDEB8"/>
<path d="M265.5 -92.5001C362.416 1.4704 81.6357 72.291 -11.5243 28.4359L-76.3927 13.888C-187.578 16.8782 -363.482 55.854 -44.5249 71.9359C312.476 89.9359 509.5 -1 412.5 -61.5L312.476 -48.9048C322.113 -65.8487 101 -252 265.5 -92.5001Z" fill="#FFDEB8"/>
</g>
</svg>
