<svg id="svg-account-order" viewBox="0 0 30 30" fill="none" xmlns="http://www.w3.org/2000/svg">
<circle cx="15" cy="15" r="15" fill="#FFC692"/>
<path d="M7 12.3806C7 11.7 7.66511 11.2182 8.31177 11.4304L14.3118 13.3992C14.7224 13.5339 15 13.9172 15 14.3493V21.4928C15 22.2083 14.2705 22.6922 13.6113 22.4141L7.6113 19.8829C7.24083 19.7266 7 19.3636 7 18.9615V12.3806Z" fill="#EF7F1A"/>
<path d="M24 12.3806C24 11.7 23.3349 11.2182 22.6882 11.4304L16.6882 13.3992C16.2776 13.5339 16 13.9172 16 14.3493V21.4928C16 22.2083 16.7295 22.6922 17.3887 22.4141L23.3887 19.8829C23.7592 19.7266 24 19.3636 24 18.9615V12.3806Z" fill="#EF7F1A"/>
<path d="M22.2109 8.61922C23.1199 8.90628 23.1499 10.1816 22.2555 10.5111L15.8457 12.8726C15.6226 12.9548 15.3774 12.9548 15.1543 12.8726L8.74455 10.5111C7.85007 10.1816 7.88012 8.90628 8.78912 8.61922L15.1989 6.59509C15.3949 6.5332 15.6051 6.5332 15.8011 6.59509L22.2109 8.61922Z" fill="#EF7F1A"/>
</svg>
