<svg id="svg-account-balance" viewBox="0 0 30 30" fill="none" xmlns="http://www.w3.org/2000/svg">
<circle cx="15" cy="15" r="15" fill="#FFC692"/>
<g clip-path="url(#clip0_940_3707)">
<circle cx="15" cy="15.0002" r="9" fill="#EF7F1A"/>
<path fill-rule="evenodd" clip-rule="evenodd" d="M14.9992 5.38428C9.68874 5.38428 5.38379 9.68923 5.38379 14.9997C5.38379 20.31 9.68874 24.615 14.9992 24.615C20.3096 24.615 24.6146 20.31 24.6146 14.9997C24.6146 9.68923 20.3096 5.38428 14.9992 5.38428ZM14.9992 6.34582C14.9992 11.1252 11.1247 14.9997 6.34533 14.9997C11.1247 14.9997 14.9992 18.8741 14.9992 23.6535C14.9992 18.8741 18.8736 14.9997 23.653 14.9997C18.8736 14.9997 14.9992 11.1252 14.9992 6.34582Z" fill="#FFC692"/>
</g>
<defs>
<clipPath id="clip0_940_3707">
<rect width="23.0769" height="23.0769" fill="white" transform="translate(3.46094 3.46118)"/>
</clipPath>
</defs>
</svg>
