<svg id="svg-individual" viewBox="0 0 55 55" fill="none" xmlns="http://www.w3.org/2000/svg">
<circle cx="27.5" cy="27.5" r="27.5" fill="#FFAEAE"/>
<path d="M15.3252 30.2111C16.1898 25.4562 20.3311 22 25.1639 22H28.8361C33.6689 22 37.8102 25.4562 38.6748 30.2111L40.1426 38.2845C40.5891 40.7398 38.7028 43 36.2071 43H17.7929C15.2972 43 13.4109 40.7398 13.8574 38.2845L15.3252 30.2111Z" fill="#FFDEB8"/>
<path d="M27 24C30.9399 24 34 20.5653 34 16.5C34 12.4347 30.9399 9 27 9C23.0601 9 20 12.4347 20 16.5C20 20.5653 23.0601 24 27 24Z" fill="#FFDEB8" stroke="#FFAEAE" stroke-width="2"/>
</svg>
