<svg id="svg-like-with-bg" viewBox="0 0 56 55" fill="none" xmlns="http://www.w3.org/2000/svg">
<circle cx="27.5" cy="27.5" r="27.5" fill="#FFDEB8"/>
<mask id="mask0_1234_3791" style="mask-type:alpha" maskUnits="userSpaceOnUse" x="0" y="0" width="56" height="55">
<ellipse cx="28" cy="27.5" rx="28" ry="27.5" fill="#0E5F66"/>
</mask>
<g mask="url(#mask0_1234_3791)">
<path d="M29.5742 11.3381C35.8473 24.4401 39.3829 46.3473 27.3497 54.4844C21.5902 58.379 16.0623 58.1746 37.6728 68.5C18.2725 68.5 -33.6 44.056 -33.6 25.0022C-33.6 5.94838 35.1273 -58.0002 41.7455 -9.00008C26.9311 0.386921 27.0323 6.02901 29.5742 11.3381Z" fill="#EF7F1A"/>
</g>
<path d="M21.0492 24.5L21.0492 24.5127C21.0492 24.5085 21.0492 24.5043 21.0492 24.5Z" fill="#0E5F66"/>
<path d="M21.0492 24.5L21.0492 24.5127L21.0492 25.0654C21.0755 25.4117 21.3712 22.9999 24 23C24.8537 23 26.1408 20.759 27.8487 14.4786C27.657 14.0393 27.4839 13.5218 27.3469 12.9625C25.8936 7.02965 34.0557 9.80245 34.0054 15.9105C33.9937 17.3263 33.5775 18.8335 32.5 21H41.5C46.2784 22.3401 43.7187 26.5 42 26.5C45.5 27 43.5 31.5 41.5 31.5C43.5479 33.8451 42 36.5 40.5 36.5C42.7813 38.5 40.0792 40.8604 38.5149 41H21.0489L21.0492 25.0654C21.044 24.9981 21.0491 24.8265 21.0492 24.5127C21.0492 24.5085 21.0492 24.5043 21.0492 24.5Z" fill="#0E5F66"/>
<rect x="12" y="23" width="8" height="18" rx="2" fill="#0E5F66"/>
</svg>
