<svg id="svg-sale-with-bg" viewBox="0 0 55 55" fill="none" xmlns="http://www.w3.org/2000/svg">
<circle cx="27.5" cy="27.5" r="27.5" fill="#E1E9B3"/>
<mask id="mask0_1248_744" style="mask-type:alpha" maskUnits="userSpaceOnUse" x="0" y="0" width="55" height="55">
<circle cx="27.5" cy="27.5" r="27.5" fill="#EF7F1A"/>
</mask>
<g mask="url(#mask0_1248_744)">
<path d="M29.0008 32.9998C44.0008 64.4998 0.000839233 50.4998 37.0008 68.4998C17.947 68.4998 -32.9992 44.0557 -32.9992 25.0019C-32.9992 5.94808 35.0008 -53.9988 41.5008 -4.9986C4.50084 13.9998 50.0008 6.49976 29.0008 32.9998Z" fill="#EF7F1A"/>
</g>
<g clip-path="url(#clip0_1248_744)">
<mask id="mask1_1248_744" style="mask-type:luminance" maskUnits="userSpaceOnUse" x="11" y="11" width="34" height="34">
<path d="M45 11H11V45H45V11Z" fill="white"/>
</mask>
<g mask="url(#mask1_1248_744)">
<path d="M23.1648 13.7769C25.3372 10.0744 30.6903 10.0744 32.8625 13.7769L32.9414 13.9114C33.9437 15.6195 35.7705 16.6743 37.7509 16.6881L37.9069 16.6892C42.1996 16.7193 44.8761 21.3551 42.7557 25.0877L42.6787 25.2232C41.7005 26.9452 41.7005 29.0548 42.6787 30.7768L42.7557 30.9123C44.8761 34.645 42.1996 39.2807 37.9069 39.3108L37.7509 39.3118C35.7705 39.3257 33.9437 40.3806 32.9414 42.0886L32.8625 42.223C30.6903 45.9256 25.3372 45.9256 23.1648 42.223L23.0859 42.0886C22.0838 40.3806 20.2568 39.3257 18.2765 39.3118L18.1206 39.3108C13.8279 39.2807 11.1514 34.645 13.2717 30.9123L13.3487 30.7768C14.3269 29.0548 14.3269 26.9452 13.3487 25.2232L13.2717 25.0877C11.1514 21.3551 13.8279 16.7193 18.1206 16.6892L18.2765 16.6881C20.2568 16.6743 22.0838 15.6195 23.0859 13.9114L23.1648 13.7769Z" fill="#0E5F66"/>
</g>
</g>
<path d="M22 34.5L33.5 23" stroke="#E1E9B3" stroke-width="2" stroke-linecap="round"/>
<circle cx="24.5" cy="23.5" r="2.5" fill="#E1E9B3"/>
<circle cx="31.5" cy="33.5" r="2.5" fill="#E1E9B3"/>
<defs>
<clipPath id="clip0_1248_744">
<rect width="34" height="34" fill="white" transform="translate(11 11)"/>
</clipPath>
</defs>
</svg>
