<svg id="svg-account-profile" viewBox="0 0 30 30" fill="none" xmlns="http://www.w3.org/2000/svg">
<circle cx="15" cy="15" r="15" fill="#FFC692"/>
<path fill-rule="evenodd" clip-rule="evenodd" d="M17.71 9.68459C17.3358 9.76151 17.1007 9.38601 17.1052 9.00398C17.1171 7.97139 17.0804 7.97273 16.0136 8.01177C15.7585 8.02111 15.4444 8.0326 15.0581 8.03262C13.7191 8.0327 13.2442 8.03269 13.0827 8.25767C12.9623 8.42545 13.0163 8.71838 13.0163 9.22982C13.0162 9.57332 12.635 9.78006 12.3465 9.59354C12.0929 9.42955 11.8143 9.25019 11.6018 9.11531C11.4588 9.02459 11.2898 8.97994 11.1381 9.05516C10.7246 9.26022 9.99424 9.86843 9.34071 10.8261C8.96688 11.3739 9.23055 11.5974 9.65947 11.9611C9.81176 12.0903 9.9849 12.2371 10.1577 12.4223C10.2766 12.5498 10.1577 12.8214 9.74936 12.8214C9.08175 12.8214 8.73781 12.8214 8.44321 12.8831C8.22587 12.9287 8.06401 13.094 8.04249 13.3151C8.00926 13.6563 8.00924 14.2195 8.00926 14.9681C8.00926 15.1017 8.00682 15.2329 8.00444 15.3604C7.98496 16.4052 7.96994 17.2111 9.34104 17.2111C9.74936 17.2111 9.74936 17.6102 9.64904 17.6864C9.55217 17.7748 9.33628 17.8777 8.93263 18.0092C8.26378 18.7798 10.7655 21.4907 11.7912 21.2018C11.9855 21.147 12.1586 20.933 12.3238 20.729C12.5582 20.4393 12.7764 20.1696 13.016 20.4037V21.1054C13.016 21.6577 13.4646 22 14.0169 22H16.6913C17.1579 22 17.1738 21.6162 17.1396 21.1148C17.1106 20.6895 17.4105 20.3573 17.7516 20.613C17.8632 20.6967 17.9734 20.7934 18.0784 20.8856C18.3538 21.1274 18.5937 21.3381 18.7331 21.2019C19.531 20.4221 20.3287 19.6425 21.1269 18.4905C21.1372 18.4755 21.1483 18.4609 21.1595 18.4462C21.1887 18.4077 21.2181 18.369 21.2343 18.3239C21.2662 18.2353 21.2636 18.0851 21.0242 17.9127C20.6729 17.6598 20.4467 17.2549 20.8772 17.2091C20.9166 17.205 20.9577 17.2019 21.0002 17.1997C21.5518 17.1715 22 16.7637 22 16.2114V12.8215C22 12.622 21.5916 12.622 21.1833 12.622C20.7749 12.622 20.3665 12.622 20.3665 12.4224C20.3665 12.1726 20.5087 11.9449 20.643 11.7297C20.8214 11.4438 20.9861 11.1799 20.7855 10.9154C20.4557 10.4804 20.1124 10.0426 19.8254 9.68116C19.4604 9.22157 18.7802 9.19721 18.2625 9.47374C18.0863 9.56785 17.8975 9.64606 17.71 9.68459ZM17.203 17.221C16.6549 17.8353 15.8708 18.2199 15 18.2199C13.3431 18.2199 12 16.8275 12 15.11C12 13.3924 13.3431 12 15 12C16.2526 12 17.3259 12.7958 17.7751 13.9264C17.7928 13.9301 17.8106 13.9337 17.8285 13.9371C17.8182 13.9602 17.8108 13.9836 17.8059 14.0071C17.8669 14.1739 17.9145 14.3476 17.9473 14.5267C18.0154 14.6699 18.0811 14.8174 18.0811 14.9681C18.0811 15.3171 18.0079 15.5649 17.8963 15.9236C17.8705 16.0224 17.8402 16.1193 17.8055 16.214C17.6721 16.63 17.5417 16.9402 17.203 17.221Z" fill="#EF7F1A"/>
</svg>
