<svg width="30" height="30" viewBox="0 0 30 30" fill="none" xmlns="http://www.w3.org/2000/svg">
<circle cx="15" cy="15" r="15" fill="#EF7F1A"/>
<path d="M9.12892 17.377C9.65828 14.2714 12.3496 12 15.5 12V12C18.6504 12 21.3417 14.2714 21.8711 17.377L22.2644 19.6846C22.649 21.9406 20.9109 24 18.6223 24H12.3777C10.0891 24 8.35104 21.9406 8.73559 19.6846L9.12892 17.377Z" fill="#C05E05"/>
<path d="M15.5 13.7C17.8278 13.7 19.75 11.8834 19.75 9.6C19.75 7.31659 17.8278 5.5 15.5 5.5C13.1722 5.5 11.25 7.31659 11.25 9.6C11.25 11.8834 13.1722 13.7 15.5 13.7Z" fill="#C05E05" stroke="#EF7F1A"/>
</svg>
