<svg width="30" height="30" viewBox="0 0 30 30" fill="none" xmlns="http://www.w3.org/2000/svg">
<circle cx="15" cy="15.001" r="15" fill="#EF7F1A"/>
<path d="M19.1378 16.6375C16.9322 15.5777 16.5145 16.3157 16.5145 16.7416C16.5145 17.1106 16.1842 17.262 15.3486 16.259C13.8815 14.4989 13.7164 14.0542 14.484 13.8933C15.9705 13.5811 16.0288 12.5118 14.688 10.184C13.6969 8.46183 12.5797 7.74268 11.4332 8.08334C10.5005 8.35775 9.44147 9.87176 9.19857 11.2817C8.93624 12.8146 8.9365 14.0229 9.19883 14.6379C9.90677 17.5877 13.0265 20.31 14.4839 21.0291C17.7291 22.6377 22.2079 22.1825 22.0039 20.1575C21.8679 18.776 21.0226 17.5459 19.1378 16.6375Z" fill="#C05E05"/>
</svg>
