<svg id="svg-delivery" viewBox="0 0 30 30" fill="none" xmlns="http://www.w3.org/2000/svg">
<circle cx="15" cy="15" r="15" fill="#FFDEB8"/>
<rect x="6" y="9" width="11.4548" height="10.5028" rx="1" fill="#EF7F1A"/>
<path d="M15.8184 11.5056H20.3639L23.1475 13.4546C23.682 13.8288 24.0004 14.4404 24.0004 15.0929V18.5077C24.0004 19.06 23.5526 19.5077 23.0004 19.5077H15.8184V11.5056Z" fill="#EF7F1A"/>
<path d="M10.9098 21.5001C12.048 21.5001 13.0462 20.6444 13.0462 19.4997C13.0462 18.3549 12.048 17.4993 10.9098 17.4993C9.77166 17.4993 8.77344 18.3549 8.77344 19.4997C8.77344 20.6444 9.77166 21.5001 10.9098 21.5001Z" fill="#EF7F1A" stroke="#FFDEB8"/>
<path d="M19.0915 21.5001C20.2297 21.5001 21.2279 20.6444 21.2279 19.4997C21.2279 18.3549 20.2297 17.4993 19.0915 17.4993C17.9533 17.4993 16.9551 18.3549 16.9551 19.4997C16.9551 20.6444 17.9533 21.5001 19.0915 21.5001Z" fill="#EF7F1A" stroke="#FFDEB8"/>
</svg>
