<svg id="svg-delivery-with-bg" viewBox="0 0 30 30" fill="none" xmlns="http://www.w3.org/2000/svg">
<circle cx="15" cy="15" r="15" fill="#FFD3D3"/>
<mask id="mask0_1180_52" style="mask-type:alpha" maskUnits="userSpaceOnUse" x="0" y="0" width="30" height="30">
<circle cx="15" cy="15" r="15" fill="#0E5F66"/>
</mask>
<g mask="url(#mask0_1180_52)">
</g>
<mask id="mask1_1180_52" style="mask-type:alpha" maskUnits="userSpaceOnUse" x="0" y="0" width="30" height="30">
<circle cx="15" cy="15" r="15" fill="#0E5F66"/>
</mask>
<g mask="url(#mask1_1180_52)">
<path d="M14.6812 12.5475C18.4959 19.5272 17.2667 31.8404 9.62959 34.0638C-0.736971 37.0817 -18.4638 33.7364 -0.45459 37.5C-10.8476 37.5 -19 25.8111 -19 15.4181C-19 5.02511 17.8182 -29.856 21.3636 -3.1286C10.6213 3.71666 12.3125 8.2137 14.6812 12.5475Z" fill="#EF7F1A"/>
</g>
<path d="M7.95276 13.4964C7.95276 12.8101 8.62833 12.3278 9.27747 12.5506L14.1674 14.2294C14.5714 14.3681 14.8427 14.7481 14.8427 15.1752V21.3748C14.8427 22.0973 14.0999 22.5814 13.4389 22.2896L8.54894 20.1312C8.18656 19.9712 7.95276 19.6124 7.95276 19.2163V13.4964Z" fill="#1E1E1E"/>
<path d="M22.5927 13.4964C22.5927 12.8101 21.9171 12.3278 21.2679 12.5506L16.378 14.2294C15.974 14.3681 15.7027 14.7481 15.7027 15.1752V21.3748C15.7027 22.0973 16.4455 22.5814 17.1065 22.2896L21.9965 20.1312C22.3588 19.9712 22.5927 19.6124 22.5927 19.2163V13.4964Z" fill="#1E1E1E"/>
<path d="M20.7811 9.86115C21.6648 10.1531 21.6696 11.4326 20.7883 11.7723L15.6226 13.7636C15.3971 13.8505 15.1503 13.8512 14.9281 13.7656L9.72372 11.7594C8.85475 11.4244 8.90966 10.1436 9.80568 9.84758L14.9681 8.14182C15.1662 8.07637 15.378 8.07591 15.5735 8.14051L20.7811 9.86115Z" fill="#1E1E1E"/>
</svg>
