<svg id="svg-favorite" viewBox="0 -0.5 28 28" xmlns="http://www.w3.org/2000/svg">
<path d="M13.8268 7.58002L14.2263 8.12093L14.6293 7.58256C17.7012 3.47815 21.1979 3.05575 23.541 4.25167C25.9245 5.4682 27.2841 8.41539 26.0141 11.4744C24.7532 14.5117 23.3745 16.7841 21.5088 18.7914C19.6929 20.7451 17.3978 22.4671 14.2541 24.3986C7.82592 19.668 4.13783 15.4919 2.68502 10.7153C2.3579 9.63972 2.47352 8.34953 2.96185 7.14151C3.44938 5.9355 4.29068 4.85659 5.35327 4.19358C6.40508 3.5373 7.68182 3.28109 9.09726 3.71401C10.526 4.15099 12.1477 5.30685 13.8268 7.58002Z" stroke-width="2" stroke="currentColor"/>
</svg>
