<svg id="svg-favorite" viewBox="0 0 20 20" fill="none" xmlns="http://www.w3.org/2000/svg">
<path d="M9.40732 5.38737L9.82378 6.02808L10.2441 5.3899C11.2202 3.90792 12.2489 3.12177 13.1795 2.8007C14.1022 2.48238 14.9686 2.6058 15.6809 3.01893C17.1211 3.85429 17.9985 5.93153 17.195 8.13103C16.3906 10.3327 15.5141 11.9716 14.333 13.4157C13.2084 14.7906 11.7913 16.009 9.85389 17.3714C5.82879 13.9848 3.52757 10.9963 2.61526 7.58764C2.41158 6.82664 2.48286 5.90667 2.78999 5.04331C3.09714 4.17988 3.622 3.42397 4.2659 2.96743C4.89469 2.52158 5.63988 2.35473 6.47169 2.64383C7.3274 2.94124 8.33934 3.74434 9.40732 5.38737Z" stroke="currentColor"/>
</svg>
