<svg id="svg-micro-with-bg" viewBox="0 0 56 55" fill="none" xmlns="http://www.w3.org/2000/svg">
<circle cx="27.5" cy="27.5" r="27.5" fill="#FFDBDB"/>
<mask id="mask0_1180_38" style="mask-type:alpha" maskUnits="userSpaceOnUse" x="0" y="0" width="56" height="55">
<ellipse cx="28" cy="27.5" rx="28" ry="27.5" fill="#0E5F66"/>
</mask>
<g mask="url(#mask0_1180_38)">
<path d="M28.7798 12.6219C35.275 24.7062 37.8153 45.3218 27.028 53.7983C20.9892 58.5436 13.3086 57.6254 36.2727 68.5977C16.8725 68.5977 -35 44.1537 -35 25.0999C-35 6.04604 33.7273 -57.9026 40.3455 -8.90242C24.424 1.18607 25.7307 6.94902 28.7798 12.6219Z" fill="#EF7F1A"/>
</g>
<path d="M37.8867 25.6662C30.982 25.6662 27.9399 20.3029 27.0728 16.9405C26.9453 16.4464 27.2603 15.9492 27.7688 15.9057C32.4241 15.5073 36.4079 22.1069 37.8867 25.6662Z" fill="#1E1E1E"/>
<path d="M17.1113 26.8884C17.964 23.2218 20.8629 15.8884 25.6377 15.8884C27.6272 16.3773 28.7072 19.2618 17.1113 26.8884Z" fill="#1E1E1E"/>
<path d="M42.7756 33.6111V39.5555C42.7756 40.6601 41.8802 41.5555 40.7756 41.5555H26.8867" stroke="#1E1E1E"/>
<path d="M13.4453 26.8883C13.4453 21.9995 16.2564 12.2217 27.5009 12.2217C31.7175 12.4545 40.432 15.7137 41.5564 26.8883" stroke="#1E1E1E"/>
<path d="M15.8297 31.1669C15.8297 34.2044 16.4595 36.6669 13.6478 36.6669C10.836 36.6669 8.55664 34.2044 8.55664 31.1669C8.55664 28.1293 10.836 25.6669 13.6478 25.6669C16.4595 25.6669 15.8297 28.1293 15.8297 31.1669Z" fill="#1E1E1E"/>
<path d="M39.1703 31.1669C39.1703 34.2044 38.5405 36.6669 41.3522 36.6669C44.164 36.6669 46.4434 34.2044 46.4434 31.1669C46.4434 28.1293 44.164 25.6669 41.3522 25.6669C38.5405 25.6669 39.1703 28.1293 39.1703 31.1669Z" fill="#1E1E1E"/>
<ellipse cx="28.1105" cy="41.556" rx="2.44444" ry="2.44444" fill="#1E1E1E"/>
<ellipse cx="22.6107" cy="28.722" rx="1.83333" ry="1.83333" fill="#1E1E1E"/>
<ellipse cx="32.388" cy="28.722" rx="1.83333" ry="1.83333" fill="#1E1E1E"/>
</svg>
