<svg id="svg-remove" viewBox="0 0 24 25" fill="currentColor" xmlns="http://www.w3.org/2000/svg">
<path fill-rule="evenodd" clip-rule="evenodd" d="M14.28 2.06152C14.6998 2.06164 15.1088 2.19788 15.4493 2.45096C15.7898 2.70403 16.0444 3.06111 16.177 3.47162L16.72 5.15383H20C20.2652 5.15383 20.5196 5.26243 20.7071 5.45574C20.8946 5.64904 21 5.91122 21 6.1846C21 6.45798 20.8946 6.72016 20.7071 6.91346C20.5196 7.10677 20.2652 7.21537 20 7.21537L19.997 7.28855L19.13 19.8052C19.0759 20.5851 18.7372 21.3149 18.182 21.8477C17.6269 22.3805 16.8965 22.6768 16.138 22.6769H7.862C7.10346 22.6768 6.37311 22.3805 5.81797 21.8477C5.26283 21.3149 4.92411 20.5851 4.87 19.8052L4.003 7.28752C4.00119 7.26352 4.00019 7.23945 4 7.21537C3.73478 7.21537 3.48043 7.10677 3.29289 6.91346C3.10536 6.72016 3 6.45798 3 6.1846C3 5.91122 3.10536 5.64904 3.29289 5.45574C3.48043 5.26243 3.73478 5.15383 4 5.15383H7.28L7.823 3.47162C7.9557 3.06095 8.21043 2.70375 8.5511 2.45065C8.89176 2.19756 9.30107 2.06142 9.721 2.06152H14.28ZM9 10.3077C8.75507 10.3077 8.51866 10.4004 8.33563 10.5682C8.15259 10.7359 8.03566 10.9671 8.007 11.2178L8 11.3384V17.5231C8.00028 17.7858 8.09788 18.0385 8.27285 18.2295C8.44782 18.4206 8.68695 18.5355 8.94139 18.5509C9.19584 18.5663 9.44638 18.481 9.64183 18.3124C9.83729 18.1437 9.9629 17.9045 9.993 17.6437L10 17.5231V11.3384C10 11.0651 9.89464 10.8029 9.70711 10.6096C9.51957 10.4163 9.26522 10.3077 9 10.3077ZM15 10.3077C14.7348 10.3077 14.4804 10.4163 14.2929 10.6096C14.1054 10.8029 14 11.0651 14 11.3384V17.5231C14 17.7964 14.1054 18.0586 14.2929 18.2519C14.4804 18.4452 14.7348 18.5538 15 18.5538C15.2652 18.5538 15.5196 18.4452 15.7071 18.2519C15.8946 18.0586 16 17.7964 16 17.5231V11.3384C16 11.0651 15.8946 10.8029 15.7071 10.6096C15.5196 10.4163 15.2652 10.3077 15 10.3077ZM14.28 4.12306H9.72L9.387 5.15383H14.613L14.28 4.12306Z"/>
</svg>
