<svg id="svg-sale" viewBox="0 0 55 55" fill="none" xmlns="http://www.w3.org/2000/svg">
<circle cx="27.5" cy="27.5" r="27.5" fill="#E1E9B3"/>
<g clip-path="url(#clip0_1192_712)">
<mask id="mask0_1192_712" style="mask-type:luminance" maskUnits="userSpaceOnUse" x="10" y="11" width="34" height="34">
<path d="M44 11H10V45H44V11Z" fill="white"/>
</mask>
<g mask="url(#mask0_1192_712)">
<path d="M22.1641 13.7769C24.3365 10.0744 29.6896 10.0744 31.8618 13.7769L31.9407 13.9114C32.943 15.6195 34.7698 16.6743 36.7502 16.6881L36.9062 16.6892C41.1989 16.7193 43.8754 21.3551 41.755 25.0877L41.678 25.2232C40.6998 26.9452 40.6998 29.0548 41.678 30.7768L41.755 30.9123C43.8754 34.645 41.1989 39.2807 36.9062 39.3108L36.7502 39.3118C34.7698 39.3257 32.943 40.3806 31.9407 42.0886L31.8618 42.223C29.6896 45.9256 24.3365 45.9256 22.1641 42.223L22.0852 42.0886C21.0831 40.3806 19.2561 39.3257 17.2758 39.3118L17.1199 39.3108C12.8272 39.2807 10.1507 34.645 12.271 30.9123L12.348 30.7768C13.3262 29.0548 13.3262 26.9452 12.348 25.2232L12.271 25.0877C10.1507 21.3551 12.8272 16.7193 17.1199 16.6892L17.2758 16.6881C19.2561 16.6743 21.0831 15.6195 22.0852 13.9114L22.1641 13.7769Z" fill="#EF7F1A"/>
</g>
</g>
<path d="M21 34.5L32.5 23" stroke="#FFDEB8" stroke-width="2" stroke-linecap="round"/>
<circle cx="23.5" cy="23.5" r="2.5" fill="#FFDEB8"/>
<circle cx="30.5" cy="33.5" r="2.5" fill="#FFDEB8"/>
<defs>
<clipPath id="clip0_1192_712">
<rect width="34" height="34" fill="white" transform="translate(10 11)"/>
</clipPath>
</defs>
</svg>
