<svg id="svg-star-with-bg" viewBox="0 0 24 24" fill="none" xmlns="http://www.w3.org/2000/svg">
<circle cx="12" cy="12" r="12" fill="#EF7F1A"/>
<path d="M11.1085 6.11651C11.1727 6.00142 11.2646 5.90594 11.3751 5.83957C11.4857 5.77321 11.6109 5.73828 11.7384 5.73828C11.8658 5.73828 11.9911 5.77321 12.1016 5.83957C12.2121 5.90594 12.3041 6.00142 12.3682 6.11651L13.9983 9.0405L17.164 9.75717C17.2885 9.78545 17.4037 9.84733 17.4982 9.93666C17.5927 10.026 17.6632 10.1396 17.7025 10.2663C17.7419 10.3929 17.7488 10.5282 17.7225 10.6585C17.6963 10.7888 17.6378 10.9096 17.553 11.0089L15.3951 13.5325L15.7217 16.8995C15.7346 17.0321 15.7139 17.1659 15.6619 17.2876C15.6098 17.4092 15.5281 17.5145 15.4249 17.5928C15.3217 17.6711 15.2007 17.7198 15.0739 17.734C14.9471 17.7481 14.8189 17.7273 14.7022 17.6735L11.7384 16.3084L8.77452 17.6735C8.65783 17.7273 8.52968 17.7481 8.40287 17.734C8.27606 17.7198 8.15503 17.6711 8.05185 17.5928C7.94867 17.5145 7.86697 17.4092 7.81489 17.2876C7.76281 17.1659 7.74219 17.0321 7.75507 16.8995L8.08167 13.5325L5.9238 11.0095C5.83879 10.9102 5.78019 10.7893 5.75386 10.6589C5.72754 10.5286 5.7344 10.3932 5.77377 10.2665C5.81314 10.1398 5.88363 10.026 5.97822 9.93664C6.07281 9.84727 6.18817 9.78539 6.3128 9.75717L9.47845 9.0405L11.1085 6.11651Z" fill="#FFC692"/>
</svg>
