<svg width="52" height="33" viewBox="0 0 52 33" fill="none" xmlns="http://www.w3.org/2000/svg">
<path d="M47.1357 22.1299C47.5687 24.8686 44.7909 28.3938 41.6382 27.395C39.1031 26.5918 36.2601 25.8161 33.6552 25.2816C30.6213 24.659 29.8381 20.762 31.5233 17.9465C34.6148 12.7812 37.0026 11.4771 41.3139 12.6323C45.6251 13.7875 46.5457 18.3979 47.1357 22.1299Z" fill="#B9B9B9"/>
<ellipse cx="31.6282" cy="12.4571" rx="1.6493" ry="2.19061" transform="rotate(15 31.6282 12.4571)" fill="#B9B9B9"/>
<ellipse cx="36.9041" cy="9.33556" rx="1.6493" ry="2.19061" transform="rotate(15 36.9041 9.33556)" fill="#B9B9B9"/>
<ellipse cx="48.1253" cy="14.61" rx="1.6493" ry="2.19061" transform="rotate(15 48.1253 14.61)" fill="#B9B9B9"/>
<ellipse cx="43.0026" cy="9.51181" rx="1.97916" ry="2.66002" transform="rotate(15 43.0026 9.51181)" fill="#B9B9B9"/>
<ellipse cx="43.0026" cy="9.51181" rx="1.97916" ry="2.66002" transform="rotate(15 43.0026 9.51181)" fill="#B9B9B9"/>
<path fill-rule="evenodd" clip-rule="evenodd" d="M19.573 3.54183C19.9784 5.7791 18.9577 7.83732 17.2931 8.139C15.6284 8.44068 13.9503 6.87158 13.5449 4.63431C13.1394 2.39705 14.1601 0.338822 15.8248 0.0371426C17.4894 -0.264537 19.1675 1.30457 19.573 3.54183ZM27.7007 11.1749C29.0879 10.9235 29.9417 9.22613 29.6078 7.38367C29.2739 5.54122 27.8787 4.25141 26.4915 4.50281C25.1043 4.75421 24.2505 6.45162 24.5844 8.29407C24.9183 10.1365 26.3135 11.4263 27.7007 11.1749ZM10.4163 7.41641C10.7502 9.25886 9.89639 10.9563 8.50921 11.2077C7.12203 11.4591 5.72681 10.1693 5.3929 8.32681C5.05899 6.48435 5.91283 4.78695 7.30001 4.53555C8.68719 4.28415 10.0824 5.57395 10.4163 7.41641ZM23.8817 29.8721C30.9644 31.4888 33.4656 23.1102 30.6792 19.0188C27.3876 14.1856 23.0529 8.34126 16.2557 9.57312C9.45857 10.805 6.9783 14.2079 6.06445 23.4798C5.48486 29.3604 10.55 35.0824 16.2457 31.2675C18.4552 29.7877 21.2892 29.2803 23.8817 29.8721ZM3.18864 19.063C4.57582 18.8116 5.42966 17.1142 5.09575 15.2718C4.76184 13.4293 3.36663 12.1395 1.97945 12.3909C0.592268 12.6423 -0.261575 14.3397 0.0723355 16.1822C0.406246 18.0246 1.80146 19.3144 3.18864 19.063Z" fill="#B9B9B9"/>
</svg>
