<svg id="svg-zip-with-bg" viewBox="0 0 24 24" fill="none" xmlns="http://www.w3.org/2000/svg">
<circle cx="12" cy="12" r="12" fill="#EF7F1A"/>
<path fill-rule="evenodd" clip-rule="evenodd" d="M13.0438 4.8828C11.1172 6.86582 8.06939 9.82416 6.42071 11.6238C5.22303 12.93 6.71616 12.5268 9.21111 12.3356L10.7098 12.1315C10.7098 12.1315 8.25661 16.2113 7.30814 18.0554C6.72949 19.1804 6.99041 20.3239 8.6801 19.1601C8.6883 19.1515 15.2905 13.1934 17.4639 11.308C17.6198 11.0766 18.3456 10.3125 17.4767 10.19C16.0865 9.9941 15.6115 10.3444 13.0049 10.1389C12.5701 10.1046 12.2916 9.96309 12.4966 9.44033C12.7017 8.91757 14.0612 5.73956 14.4385 4.88258C14.8815 3.87991 14.3449 3.54356 13.0438 4.8828Z" fill="#C05E05"/>
</svg>
