<svg width="56" height="55" viewBox="0 0 56 55" fill="none" xmlns="http://www.w3.org/2000/svg">
<g clip-path="url(#clip0_1529_275)">
<path d="M27.5 55C42.6878 55 55 42.6878 55 27.5C55 12.3122 42.6878 0 27.5 0C12.3122 0 0 12.3122 0 27.5C0 42.6878 12.3122 55 27.5 55Z" fill="#FFD3D3"/>
<mask id="mask0_1529_275" style="mask-type:alpha" maskUnits="userSpaceOnUse" x="0" y="0" width="56" height="55">
<path d="M28 55C43.464 55 56 42.6878 56 27.5C56 12.3122 43.464 0 28 0C12.536 0 0 12.3122 0 27.5C0 42.6878 12.536 55 28 55Z" fill="#0E5F66"/>
</mask>
<g mask="url(#mask0_1529_275)">
<path d="M29.5726 11.3381C35.8457 24.4401 39.3813 46.3473 27.348 54.4844C21.5886 58.379 16.0606 58.1746 37.6711 68.5C18.2709 68.5 -33.6016 44.056 -33.6016 25.0022C-33.6016 5.94836 35.1257 -58.0002 41.7439 -9.0001C26.9295 0.3869 27.0307 6.02899 29.5726 11.3381Z" fill="#EF7F1A"/>
</g>
<path d="M7 40.8997V29.0625C16.5 24 15.5 22 30 30.5C31.9828 29.6953 40.4554 26.9525 44.5797 24.6992C47.0496 23.3497 48.2205 24.1457 48.7056 25.4624C49.3518 27.2161 48.2019 29.0276 46.7923 30.255C42.5413 33.9567 36.4071 38.7391 34.2691 40.0949C31.7311 41.7044 27.9241 43.0171 24.355 40.8997C14.5203 33.1741 9.77593 37.6807 7 40.8997Z" fill="#1E1E1E"/>
<path style="mix-blend-mode:lighten" d="M30 30.5C31.9828 29.6953 40.4554 26.9525 44.5797 24.6992C47.0496 23.3497 48.2205 24.1457 48.7056 25.4624C49.3518 27.2161 48.2019 29.0276 46.7923 30.255C42.5413 33.9567 36.4071 38.7391 34.2691 40.0949C31.7311 41.7044 27.9241 43.0171 24.355 40.8997C14.5203 33.1741 9.77593 37.6807 7 40.8997V29.0625C16.5 24 15.5 22 30 30.5ZM30 30.5C33.5 31.8623 34.2691 35 31.4931 35.9657C28.1222 37.1383 23.6725 33.1095 20.5 31.5" stroke="url(#paint0_radial_1529_275)"/>
<path d="M27.3999 24.9051C17.7366 19.47 19.9036 3.33472 28 15.4667C37.4317 2.88158 37.4303 20.4237 27.3999 24.9051Z" fill="#1E1E1E"/>
</g>
<defs>
<radialGradient id="paint0_radial_1529_275" cx="0" cy="0" r="1" gradientUnits="userSpaceOnUse" gradientTransform="translate(35 61.5) rotate(-90) scale(38.5 89.8369)">
<stop stop-color="#FFDEB8"/>
<stop offset="0.605306" stop-color="#EF7F1A"/>
<stop offset="0.737389" stop-color="#F39843"/>
<stop offset="0.771425" stop-color="#EF7F1A"/>
<stop offset="0.90095" stop-color="#EF7F1A"/>
<stop offset="0.925836" stop-color="#EF7F1A"/>
<stop offset="1" stop-color="#EF7F1A"/>
</radialGradient>
<clipPath id="clip0_1529_275">
<rect width="56" height="55" fill="white"/>
</clipPath>
</defs>
</svg>
