<svg width="776" height="448" viewBox="0 0 776 448" fill="none" xmlns="http://www.w3.org/2000/svg">
<mask id="mask0_3133_73" style="mask-type:alpha" maskUnits="userSpaceOnUse" x="0" y="0" width="776" height="448">
<rect width="776" height="448" rx="40" fill="#EF7F1A"/>
</mask>
<g mask="url(#mask0_3133_73)">
<path d="M333.038 433.405C348.427 467.542 418.43 468.04 447.894 462.878C549.238 498.179 801.499 529.417 757.556 468.373C701.817 390.944 810.855 345.984 882.546 317.01L900 277.545C894.182 241.079 844.824 139.072 833.563 182.632C819.488 237.082 788.953 221.479 704.5 198.5C620.047 175.521 546.476 270 571.5 299.5C600.619 333.828 599.91 310.99 612.86 299.5C673.591 245.612 701.817 273.05 709.699 311.515C717.581 349.981 635.943 373.959 612.86 373.959C543.771 373.959 491.81 291.533 408.483 322.505C325.156 353.477 313.896 390.943 333.038 433.405Z" fill="#C05E05"/>
</g>
</svg>
