<svg viewBox="0 0 292 46" fill="none" xmlns="http://www.w3.org/2000/svg">
<g clip-path="url(#clip0_3171_90)">
<path d="M43 0H39V46H43V0Z" fill="#1E1E1E"/>
<path d="M62 0H54V46H62V0Z" fill="#1E1E1E"/>
<path d="M69 0H65V46H69V0Z" fill="#1E1E1E"/>
<path d="M88 0H84V46H88V0Z" fill="#1E1E1E"/>
<path d="M107 0H92V46H107V0Z" fill="#1E1E1E"/>
<path d="M115 0H111V46H115V0Z" fill="#1E1E1E"/>
<path d="M122 0H118V46H122V0Z" fill="#1E1E1E"/>
<path d="M141 0H126V46H141V0Z" fill="#1E1E1E"/>
<path d="M156 0H145V46H156V0Z" fill="#1E1E1E"/>
<path d="M168 0H164V46H168V0Z" fill="#1E1E1E"/>
<path d="M179 0H175V46H179V0Z" fill="#1E1E1E"/>
<path d="M194 0H190V46H194V0Z" fill="#1E1E1E"/>
<path d="M200 0H198V46H200V0Z" fill="#1E1E1E"/>
<path d="M210 0H203V46H210V0Z" fill="#1E1E1E"/>
<path d="M217 0H214V46H217V0Z" fill="#1E1E1E"/>
<path d="M229 0H222V46H229V0Z" fill="#1E1E1E"/>
<path d="M233 0H231V46H233V0Z" fill="#1E1E1E"/>
<path d="M243 0H240V46H243V0Z" fill="#1E1E1E"/>
<path d="M250 0H247V46H250V0Z" fill="#1E1E1E"/>
<path d="M261 0H259V46H261V0Z" fill="#1E1E1E"/>
<path d="M266 0H264V46H266V0Z" fill="#1E1E1E"/>
<path d="M276 0H273V46H276V0Z" fill="#1E1E1E"/>
<path d="M285 0H280V46H285V0Z" fill="#1E1E1E"/>
<path d="M292 0H287V46H292V0Z" fill="#1E1E1E"/>
<path d="M3 0H0V46H3V0Z" fill="#1E1E1E"/>
<path d="M13 0H5V46H13V0Z" fill="#1E1E1E"/>
<path d="M21 0H19V46H21V0Z" fill="#1E1E1E"/>
<path d="M35 0H27V46H35V0Z" fill="#1E1E1E"/>
<path d="M40 0H37V46H40V0Z" fill="#1E1E1E"/>
<path d="M51 0H48V46H51V0Z" fill="#1E1E1E"/>
<path d="M59 0H56V46H59V0Z" fill="#1E1E1E"/>
<path d="M72 0H70V46H72V0Z" fill="#1E1E1E"/>
<path d="M78 0H75V46H78V0Z" fill="#1E1E1E"/>
<path d="M88 0H86V46H88V0Z" fill="#1E1E1E"/>
<path d="M99 0H94V46H99V0Z" fill="#1E1E1E"/>
<path d="M107 0H102V46H107V0Z" fill="#1E1E1E"/>
</g>
<defs>
<clipPath id="clip0_3171_90">
<rect width="292" height="46" fill="white"/>
</clipPath>
</defs>
</svg>
