<svg width="1200" height="355" viewBox="0 0 1200 355" fill="none" xmlns="http://www.w3.org/2000/svg">
<mask id="mask0_1649_620" style="mask-type:alpha" maskUnits="userSpaceOnUse" x="0" y="0" width="1200" height="355">
<rect width="1200" height="355" rx="20" fill="#FFEFDC"/>
</mask>
<g mask="url(#mask0_1649_620)">
<path d="M374.282 591.812C375.4 574.617 372.342 536.71 360.675 463.152C335.984 307.482 54.3005 315.373 -89.1304 339.487L-58.8198 247.862C337.011 218.356 523.323 464.867 567 591.812H374.282C373.002 611.509 366.244 604.024 360.675 591.812H374.282Z" fill="#FFDEB8"/>
<path d="M1259.7 110.783C1265.03 122.47 1127.12 101.439 1043.7 65.6413C874.831 -6.81747 918.966 -136.144 831.259 -171.203L789.196 -179.791C806 -178.775 819.763 -175.799 831.259 -171.203L986.696 -139.47C954.196 21.8141 1063.7 35.8388 1282.2 -1.41431L1259.7 110.783Z" fill="#FFDEB8"/>
</g>
</svg>
