<svg width="55" height="55" viewBox="0 0 55 55" fill="none" xmlns="http://www.w3.org/2000/svg">
<g clip-path="url(#clip0_1529_298)">
<path d="M27.5 55C42.6878 55 55 42.6878 55 27.5C55 12.3122 42.6878 0 27.5 0C12.3122 0 0 12.3122 0 27.5C0 42.6878 12.3122 55 27.5 55Z" fill="#E1E9B3"/>
<mask id="mask0_1529_298" style="mask-type:alpha" maskUnits="userSpaceOnUse" x="0" y="0" width="55" height="55">
<path d="M27.5 55C42.6878 55 55 42.6878 55 27.5C55 12.3122 42.6878 0 27.5 0C12.3122 0 0 12.3122 0 27.5C0 42.6878 12.3122 55 27.5 55Z" fill="#EF7F1A"/>
</mask>
<g mask="url(#mask0_1529_298)">
<path d="M29 32.9996C44 64.4996 3.05176e-05 50.4996 37 68.4996C17.9462 68.4996 -33 44.0555 -33 25.0017C-33 5.94785 35 -53.999 41.5 -4.99883C4.50003 13.9996 50 6.49953 29 32.9996Z" fill="#EF7F1A"/>
</g>
<mask id="mask1_1529_298" style="mask-type:luminance" maskUnits="userSpaceOnUse" x="11" y="11" width="34" height="34">
<path d="M45 11H11V45H45V11Z" fill="white"/>
</mask>
<g mask="url(#mask1_1529_298)">
<mask id="mask2_1529_298" style="mask-type:luminance" maskUnits="userSpaceOnUse" x="11" y="11" width="34" height="34">
<path d="M45 11H11V45H45V11Z" fill="white"/>
</mask>
<g mask="url(#mask2_1529_298)">
<path d="M23.1661 13.7769C25.3384 10.0744 30.6915 10.0744 32.8637 13.7769L32.9426 13.9114C33.9449 15.6195 35.7718 16.6743 37.7521 16.6881L37.9082 16.6892C42.2008 16.7193 44.8773 21.3551 42.7569 25.0877L42.6799 25.2232C41.7017 26.9452 41.7017 29.0548 42.6799 30.7768L42.7569 30.9123C44.8773 34.645 42.2008 39.2807 37.9082 39.3108L37.7521 39.3118C35.7718 39.3257 33.9449 40.3806 32.9426 42.0886L32.8637 42.223C30.6915 45.9256 25.3384 45.9256 23.1661 42.223L23.0872 42.0886C22.085 40.3806 20.258 39.3257 18.2777 39.3118L18.1218 39.3108C13.8291 39.2807 11.1526 34.645 13.2729 30.9123L13.3499 30.7768C14.3281 29.0548 14.3281 26.9452 13.3499 25.2232L13.2729 25.0877C11.1526 21.3551 13.8291 16.7193 18.1218 16.6892L18.2777 16.6881C20.258 16.6743 22.085 15.6195 23.0872 13.9114L23.1661 13.7769Z" fill="#0E5F66"/>
</g>
</g>
<path d="M22 34.5L33.5 23" stroke="#E1E9B3" stroke-width="2" stroke-linecap="round"/>
<path d="M24.5 26C25.8807 26 27 24.8807 27 23.5C27 22.1193 25.8807 21 24.5 21C23.1193 21 22 22.1193 22 23.5C22 24.8807 23.1193 26 24.5 26Z" fill="#E1E9B3"/>
<path d="M31.5 36C32.8807 36 34 34.8807 34 33.5C34 32.1193 32.8807 31 31.5 31C30.1193 31 29 32.1193 29 33.5C29 34.8807 30.1193 36 31.5 36Z" fill="#E1E9B3"/>
</g>
<defs>
<clipPath id="clip0_1529_298">
<rect width="55" height="55" fill="white"/>
</clipPath>
</defs>
</svg>
