<svg width="55" height="55" viewBox="0 0 55 55" fill="none" xmlns="http://www.w3.org/2000/svg">
<circle cx="27.5" cy="27.5" r="27.5" fill="#EF7F1A"/>
<g clip-path="url(#clip0_3194_56)">
<mask id="mask0_3194_56" style="mask-type:luminance" maskUnits="userSpaceOnUse" x="11" y="11" width="35" height="35">
<path d="M46 11H11V46H46V11Z" fill="white"/>
</mask>
<g mask="url(#mask0_3194_56)">
<path d="M23.5228 13.8586C25.7591 10.0471 31.2696 10.0471 33.5057 13.8586L33.5869 13.997C34.6187 15.7553 36.4993 16.8411 38.5379 16.8554L38.6985 16.8565C43.1174 16.8875 45.8726 21.6597 43.6899 25.502L43.6106 25.6416C42.6036 27.4142 42.6036 29.5859 43.6106 31.3584L43.6899 31.4979C45.8726 35.3404 43.1174 40.1125 38.6985 40.1434L38.5379 40.1445C36.4993 40.1588 34.6187 41.2447 33.5869 43.0029L33.5057 43.1414C31.2696 46.9529 25.7591 46.9529 23.5228 43.1414L23.4416 43.0029C22.41 41.2447 20.5292 40.1588 18.4907 40.1445L18.3302 40.1434C13.9113 40.1125 11.1561 35.3404 13.3387 31.4979L13.418 31.3584C14.4249 29.5859 14.4249 27.4142 13.418 25.6416L13.3387 25.502C11.1561 21.6597 13.9113 16.8875 18.3302 16.8565L18.4907 16.8554C20.5293 16.8411 22.41 15.7553 23.4416 13.997L23.5228 13.8586Z" fill="#FFDEB8"/>
</g>
</g>
<path d="M24 26.6L27.75 33L34 23" stroke="#C05E05" stroke-width="2" stroke-linecap="round"/>
<defs>
<clipPath id="clip0_3194_56">
<rect width="35" height="35" fill="white" transform="translate(11 11)"/>
</clipPath>
</defs>
</svg>
