<svg width="55" height="55" viewBox="0 0 55 55" fill="none" xmlns="http://www.w3.org/2000/svg">
<g clip-path="url(#clip0_1529_317)">
<path d="M27.5 55C42.6878 55 55 42.6878 55 27.5C55 12.3122 42.6878 0 27.5 0C12.3122 0 0 12.3122 0 27.5C0 42.6878 12.3122 55 27.5 55Z" fill="#C05E05"/>
<mask id="mask0_1529_317" style="mask-type:alpha" maskUnits="userSpaceOnUse" x="0" y="0" width="55" height="55">
<path d="M27.5 55C42.6878 55 55 42.6878 55 27.5C55 12.3122 42.6878 0 27.5 0C12.3122 0 0 12.3122 0 27.5C0 42.6878 12.3122 55 27.5 55Z" fill="#0E5F66"/>
</mask>
<g mask="url(#mask0_1529_317)">
<path d="M31.4003 32.9091C33.0126 40.6981 32.2793 51.1987 27.0858 57.2232C15.1073 71.1184 -40.7534 60.4075 -0.832108 68.7503C-19.8859 68.7503 -34.832 47.3206 -34.832 28.2668C-34.832 9.21302 32.668 -54.7356 39.168 -5.73545C11.3933 11.9632 28.9559 21.0994 31.4003 32.9091Z" fill="#EF7F1A"/>
</g>
<path d="M14.582 24.9772C14.582 23.6045 15.9331 22.6399 17.2314 23.0856L25.863 26.049C26.671 26.3263 27.2136 27.0863 27.2136 27.9406V38.9317C27.2136 40.3768 25.728 41.3449 24.4059 40.7613L15.7743 36.9513C15.0496 36.6314 14.582 35.9138 14.582 35.1216V24.9772Z" fill="#1E1E1E"/>
<path d="M41.4207 24.9772C41.4207 23.6045 40.0696 22.6399 38.7713 23.0856L30.1397 26.049C29.3317 26.3263 28.7891 27.0863 28.7891 27.9406V38.9317C28.7891 40.3768 30.2747 41.3449 31.5968 40.7613L40.2284 36.9513C40.9531 36.6314 41.4207 35.9138 41.4207 35.1216V24.9772Z" fill="#1E1E1E"/>
<path d="M37.6547 17.9312C39.4221 18.5152 39.4318 21.074 37.6692 21.7535L28.7014 25.2104C28.2504 25.3843 27.7567 25.3857 27.3123 25.2144L18.2672 21.7277C16.5293 21.0578 16.6391 18.4961 18.4311 17.904L27.3924 14.9431C27.7886 14.8122 28.2121 14.8113 28.6031 14.9405L37.6547 17.9312Z" fill="#1E1E1E"/>
<path d="M38 41C40.7614 41 43 38.7614 43 36C43 33.2386 40.7614 31 38 31C35.2386 31 33 33.2386 33 36C33 38.7614 35.2386 41 38 41Z" fill="#E1E9B3"/>
<path d="M36 36L37.5 38L40 34" stroke="#1E1E1E" stroke-linecap="round"/>
</g>
<defs>
<clipPath id="clip0_1529_317">
<rect width="55" height="55" fill="white"/>
</clipPath>
</defs>
</svg>
