<svg width="55" height="55" viewBox="0 0 55 55" fill="none" xmlns="http://www.w3.org/2000/svg">
<circle cx="27.5" cy="27.5" r="27.5" fill="#EF7F1A"/>
<rect x="14" y="19" width="27" height="22" rx="4" fill="#FFDEB8"/>
<path d="M14 23C14 20.7909 15.7909 19 18 19H37C39.2091 19 41 20.7909 41 23V25H14V23Z" fill="#FFC692"/>
<rect x="34" y="15" width="1" height="4" fill="#FFC692"/>
<rect x="21" y="15" width="1" height="4" fill="#FFC692"/>
<circle cx="36" cy="38" r="8" fill="#C05E05"/>
<path d="M36.6255 34.5449H35.8145V32.9121H36.6255V34.5449ZM36.5234 43.1172H35.7231V41.6885H36.5234V43.1172ZM37.5923 39.9858C37.5923 39.771 37.5439 39.5776 37.4473 39.4058C37.3506 39.2339 37.1912 39.0763 36.9692 38.9331C36.7508 38.7863 36.4554 38.652 36.083 38.5303C35.6318 38.3906 35.2415 38.2205 34.9121 38.02C34.5863 37.8195 34.3338 37.5724 34.1548 37.2788C33.9793 36.9816 33.8916 36.6217 33.8916 36.1992C33.8916 35.7588 33.9865 35.3792 34.1763 35.0605C34.366 34.7419 34.6346 34.4966 34.9819 34.3247C35.3293 34.1528 35.7375 34.0669 36.2065 34.0669C36.6935 34.0669 37.1089 34.1636 37.4526 34.3569C37.8 34.5503 38.0649 34.835 38.2476 35.2109C38.4338 35.5833 38.5269 36.0399 38.5269 36.5806H37.5278C37.5278 36.1007 37.415 35.7051 37.1895 35.3936C36.9639 35.082 36.6362 34.9263 36.2065 34.9263C35.9093 34.9263 35.6623 34.98 35.4653 35.0874C35.272 35.1912 35.1287 35.3381 35.0356 35.5278C34.9425 35.714 34.896 35.9325 34.896 36.1831C34.896 36.4123 34.9425 36.6128 35.0356 36.7847C35.1287 36.9565 35.2863 37.1123 35.5083 37.252C35.7339 37.388 36.0418 37.5223 36.4321 37.6548C36.894 37.8016 37.2861 37.9753 37.6084 38.1758C37.9307 38.3727 38.1759 38.6162 38.3442 38.9062C38.5125 39.1963 38.5967 39.5526 38.5967 39.9751C38.5967 40.437 38.4928 40.8273 38.2852 41.146C38.0775 41.4611 37.7856 41.701 37.4097 41.8657C37.0373 42.0304 36.5968 42.1128 36.0884 42.1128C35.784 42.1128 35.4832 42.0716 35.186 41.9893C34.8888 41.9069 34.6203 41.7726 34.3804 41.5864C34.1405 41.4002 33.9489 41.1532 33.8057 40.8452C33.6624 40.5337 33.5908 40.1506 33.5908 39.6958H34.5952C34.5952 40.0002 34.6382 40.2544 34.7241 40.4585C34.8136 40.659 34.9318 40.8184 35.0786 40.9365C35.2254 41.0511 35.3866 41.1335 35.562 41.1836C35.7375 41.2301 35.9129 41.2534 36.0884 41.2534C36.4071 41.2534 36.6774 41.2015 36.8994 41.0977C37.125 40.9938 37.2969 40.847 37.415 40.6572C37.5332 40.4674 37.5923 40.2437 37.5923 39.9858Z" fill="#FFDEB8"/>
</svg>
