<svg width="55" height="55" viewBox="0 0 55 55" fill="none" xmlns="http://www.w3.org/2000/svg">
<circle cx="27.5" cy="27.5" r="27.5" fill="#EF7F1A"/>
<path d="M32.5845 16.0568L32.6336 16.0132L32.6698 15.9585C32.9769 15.494 33.3211 14.7138 33.3785 13.8376C33.4371 12.9431 33.1947 11.936 32.3065 11.1039C31.4254 10.2786 30.517 10.0917 29.5739 10.2086C29.1208 10.2647 28.6638 10.3898 28.2099 10.5323C28.0068 10.5961 27.7992 10.6651 27.5908 10.7343C27.5657 10.7427 27.5405 10.751 27.5154 10.7594C27.2802 10.8374 27.0427 10.9157 26.7986 10.9907C26.4271 11.1045 25.9528 11.3582 25.5873 11.6554C25.4042 11.8044 25.2213 11.9858 25.0953 12.1918C24.9714 12.3943 24.8615 12.6925 24.972 13.0166C25.0258 13.1743 25.1415 13.3488 25.2489 13.497C25.368 13.6614 25.5212 13.8522 25.6946 14.056C26.0421 14.4646 26.4874 14.9454 26.9426 15.4066C27.3973 15.8675 27.8692 16.3161 28.2703 16.6585C28.47 16.8291 28.6597 16.9797 28.8255 17.0934C28.9083 17.1501 28.9922 17.2026 29.0736 17.2446C29.1477 17.2829 29.2525 17.3299 29.37 17.3478C29.5083 17.3689 29.6514 17.3543 29.7673 17.335C29.8916 17.3144 30.0262 17.2811 30.1625 17.2409C30.4355 17.1605 30.7458 17.0439 31.0484 16.9143C31.3519 16.7844 31.657 16.6375 31.9205 16.4935C32.1747 16.3546 32.4209 16.2019 32.5845 16.0568Z" fill="#FFDEB8" stroke="#EF7F1A"/>
<path d="M30.4125 36.2653C28.3363 34.834 28.0865 31.8618 29.8947 30.104L33.9237 26.1873C35.387 24.7648 37.6866 24.6719 39.2598 25.9719L43.9849 29.8763C44.8356 30.5793 44.9562 31.8386 44.2542 32.6902L38.527 39.6385C37.8667 40.4395 36.7032 40.6022 35.8485 40.013L30.4125 36.2653Z" fill="#FFDEB8"/>
<path d="M17.9013 39.997L14.6959 37.5001C13.7444 36.7589 13.6605 35.3503 14.5174 34.5014L20.3184 28.7548C22.5933 24.1691 29.2681 14.9005 32.6948 13.0379C36.5849 10.9235 37.7683 15.2888 36.8894 17.0993C40.0038 16.4321 40.3895 19.5982 39.3895 20.5993C42.0886 20.021 42.8895 22.0992 41.8895 24.0992C46.5964 23.6285 42.8843 28.9183 42.433 29.5399C42.4034 29.5808 42.3737 29.6189 42.3422 29.6583C41.0462 31.2783 39.5392 32.7176 37.8615 33.9378L36.6006 34.8548C35.5431 35.6239 34.1591 35.6532 32.8555 35.5514C29.1168 35.2595 26.4148 39.1098 24.0391 42.1166C23.4075 42.916 22.27 43.055 21.4354 42.4708L17.9013 39.997Z" fill="#FFDEB8" stroke="#EF7F1A"/>
<path d="M21.1548 29C23.2283 31.393 21.6743 32.8056 19.818 33.0462C18.878 33.1681 17.9504 32.8487 17.0729 32.4903C15.6278 31.9002 13.4498 30.8945 12.9013 30C11.9438 28.4384 13.4948 26.4771 16.846 26.4771C15.4096 22.8358 16.5098 21.5625 18.761 21.7924C15.4098 16.5872 20.1973 15.5461 22.591 18.1438C20.7992 15.2216 20.6761 13.4626 21.1548 12.4203C21.7961 11.0238 25.6568 9.13079 30.0243 15.1961C34.2404 21.0511 30.0363 23.9011 26.9012 21.5C29.4013 23.5 27.9013 27 23.9013 25C26.9012 28 22.9013 30.5 21.1548 29Z" fill="#EF7F1A"/>
<path d="M18.5965 26.901C20.4784 28.5344 20.893 29.9524 20.5726 30.9385C19.864 33.1189 16.7253 31.7184 14.8978 30.3341C13.9356 29.6052 13.024 28.8322 12.7109 28.3144C11.8465 26.8848 12.0369 24.1663 15.3959 24.4014C14.1786 21.1237 15.3591 20.09 17.6015 20.4485C14.5605 15.672 19.4226 15.0997 21.6633 17.534C20.0458 14.8588 20.0299 13.3155 20.5733 12.4397C21.3014 11.2662 25.4609 10.661 29.468 16.2593C33.3362 21.6635 27.9739 21.3646 25.3433 20.0734C28.5125 24.8589 25.4418 25.5547 21.282 22.9817C25.8136 26.4935 23.9779 30.4722 18.5965 26.901Z" fill="#FFDEB8"/>
</svg>
