<svg width="1199" height="510" viewBox="0 0 1199 510" fill="none" xmlns="http://www.w3.org/2000/svg">
<mask id="mask0_1610_163" style="mask-type:alpha" maskUnits="userSpaceOnUse" x="0" y="0" width="1199" height="510">
<rect width="1199" height="510" rx="30" fill="#FFEFDC"/>
</mask>
<g mask="url(#mask0_1610_163)">
<path d="M711.413 284.15C663.084 360.419 714.585 534.55 761.479 547.759C883.403 619.357 1138.84 875.692 845.889 386.952C704.23 150.618 1196.5 284.15 1356 168.416C1410.83 128.63 1507.45 20.4325 1361.7 60.3177C1349.06 63.7742 1337.59 70.6846 1326.64 77.8646C1242.19 133.232 1029.95 170.352 845.889 -24C790.065 -82.9439 835.76 -9.99863 779 -9.99969C761.479 -10 819.5 78.3697 871 121C1000.45 228.156 771.823 188.814 711.413 284.15Z" fill="#E1E9B3"/>
</g>
</svg>
