<svg width="992" height="400" viewBox="0 0 992 400" fill="none" xmlns="http://www.w3.org/2000/svg">
<mask id="mask0_940_1840" style="mask-type:alpha" maskUnits="userSpaceOnUse" x="0" y="0" width="992" height="400">
<rect width="992" height="400" fill="#FDF1E6"/>
</mask>
<g mask="url(#mask0_940_1840)">
<path fill-rule="evenodd" clip-rule="evenodd" d="M465.615 263.57C485.183 268.198 533.49 262.248 533.49 201.129C533.49 172 604.543 126.314 630 155.5C659.212 188.99 615.738 323.558 652.5 304.296C721.684 268.045 745.798 125.597 728.462 245.954C726.77 257.701 726.207 270.04 726.123 281.908C724.563 502.437 548.147 436.847 491.455 410.053C479.763 404.526 469.433 396.651 460.155 387.641L445.904 373.801C435.837 364.025 422.357 358.556 408.325 358.556C401.418 358.556 394.569 360.16 388.811 363.974C373.716 373.974 348.136 395.688 382.317 410.823C416.942 426.153 173.948 466.233 391.709 339.879C398.948 335.679 401.825 322.829 397.811 304.296C393.797 285.762 389.43 262.299 391.709 268.515C392.439 270.506 390.594 265.327 390.503 257.414C390.178 229.343 424.154 228.312 443.806 248.36C450.836 255.532 458.005 261.771 465.615 263.57Z" fill="#EF7F1A"/>
<path d="M614.28 400.36C665.968 414.652 684.616 348.985 635.66 377.56C633.188 379.004 630.587 380.477 627.744 380.814C611.6 382.732 594.897 364.475 612.789 348.029C628.664 333.437 641.093 339.816 643.777 340.308" stroke="#FFBC6D" stroke-width="15"/>
<path d="M457.133 297.38C457.207 263.953 408.812 267.232 432.7 292.223C434.64 294.253 436.724 296.273 437.85 298.846C441.489 307.169 437.216 314.308 424.465 306.278C412.545 298.771 414.414 290.177 414.261 288.456" stroke="#C05E05" stroke-width="10"/>
</g>
</svg>
