<svg width="1920" height="580" viewBox="0 0 1920 580" fill="none" xmlns="http://www.w3.org/2000/svg">
<mask id="mask0_940_869" style="mask-type:alpha" maskUnits="userSpaceOnUse" x="0" y="0" width="1920" height="580">
<path d="M-1.38064e-05 60C-1.38064e-05 26.8629 26.8629 0 60 0H1860C1893.14 0 1920 26.8629 1920 60V520C1920 553.137 1893.14 580 1860 580H60C26.8629 580 -1.38064e-05 553.137 -1.38064e-05 520V60Z" fill="#FDF1E6"/>
</mask>
<g mask="url(#mask0_940_869)">
<path fill-rule="evenodd" clip-rule="evenodd" d="M1335.99 171.434C1411.51 109.669 1552.08 53.6763 1586.72 144.803V144.803C1611.74 204.612 1370.03 342.658 1627.83 301.31C1697.49 290.138 1637.36 584.552 1661.4 581.241C1461.63 629.034 1597.92 406.828 1597.92 385.724C1553.95 383.655 1473.15 525.379 1502.08 581.241C1523.69 622.98 1054.53 619.916 1001.14 581.241C1072.05 495.586 1022.2 429.385 1003.33 364.397C983.762 296.985 969.06 206.684 978.074 179.67C999.321 115.996 1072.87 100.187 1098.81 102.069C1171.52 107.346 1174.99 193.359 1326.03 179.671C1329.42 176.841 1332.74 174.096 1335.99 171.434Z" fill="#EF7F1A"/>
<path d="M1651.33 583.314C1749.17 557.732 1715.91 432.172 1662.67 529.872C1661.3 532.389 1659.7 534.983 1657.59 536.927C1634.17 558.534 1585.91 545.457 1599.91 500.535C1611.85 462.234 1637.87 460.885 1642.65 459.168" stroke="#C05E05" stroke-width="15"/>
<path d="M961.207 398.547C961.207 463.099 1055.8 433.957 1013.48 389.237C961.207 333.996 1027.56 300.149 1069.31 375.045" stroke="#FFAEAE" stroke-width="15"/>
</g>
</svg>
