<svg width="992" height="400" viewBox="0 0 992 400" fill="none" xmlns="http://www.w3.org/2000/svg">
<mask id="mask0_3121_60" style="mask-type:alpha" maskUnits="userSpaceOnUse" x="0" y="0" width="992" height="400">
<rect width="992" height="400" fill="#FDF1E6"/>
</mask>
<g mask="url(#mask0_3121_60)">
<path d="M368.586 221.002C333.365 257.285 308 172.5 241.5 172.5C156 172.5 140.529 197 113 257.285C77.7388 334.503 187.591 405.857 189.324 413.173C192.209 425.357 306.216 418.25 362.859 413.173C515.038 442.14 924.789 558.039 912.74 449.456C900.69 340.873 833.822 267.588 871.159 236.232C877.877 205.771 867.814 147.695 796.5 172.5C762 184.5 785.5 226 694.5 236.232C683 236.232 671.558 242.865 640.5 156.5C601.677 48.5441 485.567 142.426 516.5 202C530 228 516.5 243.399 501.814 257.285C487.128 271.172 475.75 272.964 486.752 243.399C507.754 186.957 455.99 130.964 368.586 221.002Z" fill="#0E5F66"/>
<path d="M334.055 370.398C345.64 418.7 407.13 404.498 362.429 377.675C359.974 376.202 357.427 374.653 355.796 372.301C347.268 360.008 354.638 338.591 375.882 345.685C394.862 352.023 395.263 364.982 396.07 367.383" stroke="#E1E9B3" stroke-width="8"/>
<path d="M631.602 330.131C678.175 323.713 670.598 264.552 641.239 303.872C639.526 306.166 637.745 308.549 635.226 309.909C622.828 316.606 603.562 307.651 612.188 288.375C619.935 271.062 632.196 271.891 634.535 271.354" stroke="#FFDEB8" stroke-width="10"/>
</g>
</svg>
