<svg width="992" height="400" viewBox="0 0 992 400" fill="none" xmlns="http://www.w3.org/2000/svg">
<mask id="mask0_3125_108" style="mask-type:alpha" maskUnits="userSpaceOnUse" x="0" y="0" width="992" height="400">
<rect width="992" height="400" fill="#FDF1E6"/>
</mask>
<g mask="url(#mask0_3125_108)">
<path fill-rule="evenodd" clip-rule="evenodd" d="M343.734 351.993C349.534 371.756 339.603 390.266 328.707 405.036C184.132 601.008 531.126 444.155 548.134 445.044C568.2 446.094 722.977 435.788 736.739 424.631C750.501 413.475 778.839 238.818 763.5 328.5C753.52 386.846 657.273 399.06 663.708 367.032C665.411 358.559 672.198 353.194 677.311 346.907C691.291 329.718 717.065 287.99 704.272 225C695.526 181.935 544.759 175.963 514.023 206.314C484.049 235.913 529.6 304.959 509.462 277.104C486.348 245.133 504.524 205.199 474.445 194.984C465.961 192.103 457.013 193.229 449.392 196.665C407.621 215.5 477.225 257.393 478.334 288.37C480.212 340.835 452.842 239.733 409.104 225C303.917 198.408 307.943 299.024 277.085 339.271C246.226 379.518 213.404 413.706 110.182 407.185C27.4242 401.956 230.13 424.63 277.084 424.631C290.804 328.281 332.672 314.295 343.734 351.993Z" fill="#0E5F66"/>
<path d="M412.67 266.561C410.214 224.684 358.322 250.676 390.314 272.576C392.796 274.275 395.416 275.927 397.238 278.313C408.795 293.453 390.267 307.83 374.144 300.783C364.723 296.666 363.376 284.82 362.951 282.957" stroke="#FFDEB8" stroke-width="10"/>
<path d="M629.988 239.173C654.354 258.547 684.374 219.116 641.176 214.375C607.254 213.998 627.507 182.427 644.499 193C666.999 207 675.5 184 657.001 178.5" stroke="#093F44" stroke-width="8"/>
<path d="M616.084 222.563C625.352 214.658 615.437 199.647 607.391 206.098C604.671 208.279 603.033 212.066 599.665 212.724C592.549 214.113 584.085 205.837 590.306 191.699C593.929 183.464 600.597 184.878 604.201 184.865" stroke="#093F44" stroke-width="11"/>
</g>
</svg>
