<svg width="1920" height="580" viewBox="0 0 1920 580" fill="none" xmlns="http://www.w3.org/2000/svg">
<mask id="mask0_940_2047" style="mask-type:alpha" maskUnits="userSpaceOnUse" x="0" y="0" width="1920" height="580">
<rect width="1920" height="580" rx="60" fill="#FDF1E6"/>
</mask>
<g mask="url(#mask0_940_2047)">
<path fill-rule="evenodd" clip-rule="evenodd" d="M1359.55 235.952C1155.78 419.972 1198.23 268.357 1040.4 275.403C1011.84 276.678 866.278 211.93 807.882 275.402C702.261 390.205 1014.02 528.465 910.238 482.267C818.141 441.27 565.838 422.81 797.038 719.142C975.605 997.097 644.193 498.401 839.742 523.029C852.815 524.675 864.939 531.433 875.436 539.394C1029.83 656.488 1161.55 642.311 1256.9 595.731C1343.34 553.506 1472.86 566.168 1513.55 653.312L1548.36 727.864C1565.54 764.655 1618.29 763.248 1633.57 725.591C1649.06 687.399 1708.71 699.545 1709.56 740.741C1712.51 883.334 1728.34 981.802 1789.39 572.169C1800.82 495.445 1531.51 482.267 1531.51 387.568C1531.51 374.702 1548.25 356.801 1575.6 356.801C1636.65 356.801 1762.04 589.509 1778.23 397.077C1792 233.294 1752.67 235.145 1682.27 260.623C1660.34 268.559 1635.96 257.473 1623.59 237.714C1589.46 183.2 1507.18 102.627 1359.55 235.952Z" fill="#EF7F1A"/>
<path d="M879.028 568.418C917.362 650.676 1022.84 601.212 928.549 569.937C925.83 569.035 922.996 567.934 920.729 566.182C898.227 548.783 902.197 504.472 943.98 509.554C979.787 513.909 985.171 536.699 987.462 540.656" stroke="#C05E05" stroke-width="15"/>
<path d="M1567.43 343.892C1471.01 299.343 1436.31 444.081 1529.05 398.691C1532.68 396.917 1536.62 395.358 1540.65 395.065C1572.83 392.729 1594.62 419.235 1553.6 446.13C1518.06 469.429 1495.93 453.048 1490.87 451.233" stroke="#FFAEAE" stroke-width="15"/>
</g>
</svg>
