<svg width="1920" height="580" viewBox="0 0 1920 580" fill="none" xmlns="http://www.w3.org/2000/svg">
<mask id="mask0_940_1665" style="mask-type:alpha" maskUnits="userSpaceOnUse" x="0" y="0" width="1920" height="580">
<rect width="1920" height="580" rx="60" fill="#FDF1E6"/>
</mask>
<g mask="url(#mask0_940_1665)">
<path d="M1074.66 509.628C1237.26 692.404 1608.23 630.25 1620.05 611.744C1508.67 451.914 1740.54 514.287 1740.54 334.407C1794.23 234.17 1685.21 146.728 1596.66 238.063C1519.13 318.04 1509.79 424.068 1350.52 221.351C1320.38 182.995 1285.11 175.497 1254.29 185.342C1170.43 212.126 1164.63 340.615 1105.55 410.054C1088.7 429.86 1086.78 416.27 1085.57 401.806C1074.84 273.142 1009.63 426.481 857.1 521.52C746.271 590.573 706.177 587.718 732.348 603.382C920.852 649.024 976.588 571.085 1004.49 512.973C1022.17 476.146 1049.26 481.07 1074.66 509.628Z" fill="#E1E9B3"/>
<path d="M1594.21 258.173C1535.96 272.529 1553.91 346.957 1586.1 291.616C1587.54 289.141 1589.11 286.583 1591.38 284.844C1605.96 273.706 1632.75 282.27 1624.24 308.282C1616.76 331.153 1601.18 331.732 1598.3 332.72" stroke="#FFAEAE" stroke-width="12"/>
<path d="M1076.86 545.754C1113.98 658.933 1257.13 609.807 1138.93 554.672C1136.31 553.452 1133.62 551.962 1131.46 550.055C1105.16 526.918 1106.02 485.14 1150.23 490.797C1156.15 491.554 1160.73 495.996 1163.38 501.343C1176.33 527.474 1194.76 526.413 1219.82 525.989" stroke="#F2994A" stroke-width="13"/>
</g>
</svg>
