<svg width="992" height="400" viewBox="0 0 992 400" fill="none" xmlns="http://www.w3.org/2000/svg">
<mask id="mask0_940_1247" style="mask-type:alpha" maskUnits="userSpaceOnUse" x="0" y="0" width="992" height="400">
<path d="M931.969 0.00118932L59.9989 0.0174682C26.8622 0.0180868 0.000987232 26.8808 0.00220422 60.0174L0.0124869 339.999C0.0137039 373.136 26.8782 399.999 60.0157 399.999L931.96 399.983C965.095 399.982 991.955 373.123 991.957 339.988L991.973 60.0067C991.974 26.867 965.109 0.000570631 931.969 0.00118932Z" fill="white"/>
</mask>
<g mask="url(#mask0_940_1247)">
<path fill-rule="evenodd" clip-rule="evenodd" d="M534.207 164.378C560.156 139.469 597.922 118.222 610.54 157.561V157.561C618.993 190.895 561.779 255.687 653.463 229.591C678.236 222.54 660.665 387.074 660.665 387.074C597.898 393.537 623.362 382.4 636.038 282.826C620.463 282.15 588.111 351.158 597.976 382.23C605.347 405.447 400.021 413.229 381.366 392.087C407.101 343.164 408.417 323.752 402.183 287.439C395.717 249.772 391.136 199.187 394.52 183.906C402.497 147.887 428.683 138.187 437.864 138.957C462.521 141.025 464.137 185.431 511.379 180.931C515.629 180.527 519.862 178.143 523.628 174.53C527.426 170.887 530.946 167.509 534.207 164.378Z" fill="#EF7F1A"/>
<path d="M645.737 392.5C697.151 380.246 680.777 317.96 652.964 363.627C651.441 366.127 649.834 368.714 647.416 370.365C634.452 379.216 611.324 371.965 618.51 350.288C624.919 330.955 638.764 330.415 641.315 329.572" stroke="#C05E05" stroke-width="15"/>
<path d="M341.444 334.301C337.467 378.686 387.641 360.771 373 342.39C370.129 338.786 366.196 335.906 364.351 331.681C354.232 308.515 378.577 286.753 412.233 319.535" stroke="#FFAEAE" stroke-width="15"/>
</g>
</svg>
