<svg viewBox="0 0 1920 580" fill="none" xmlns="http://www.w3.org/2000/svg">
<mask id="mask0_940_869" style="mask-type:alpha" maskUnits="userSpaceOnUse" x="0" y="0" width="1920" height="580">
<path d="M0 60C0 26.8629 26.8629 0 60 0H1860C1893.14 0 1920 26.8629 1920 60V520C1920 553.137 1893.14 580 1860 580H60C26.8629 580 0 553.137 0 520V60Z" fill="#FDF1E6"/>
</mask>
<g mask="url(#mask0_940_869)">
<path fill-rule="evenodd" clip-rule="evenodd" d="M1375.3 245.091C1436.1 195.196 1549.12 149.881 1577 223.425C1597.1 271.604 1402.91 382.808 1610.03 349.5C1666 340.5 1617.69 577.667 1637 575C1476.5 613.499 1586 434.5 1586 417.5C1550.67 415.833 1485.76 530 1509 575C1526.36 608.623 1149.42 606.155 1106.53 575C1163.5 506 1123.45 452.671 1108.29 400.32C1092.57 346.016 1080.76 273.273 1088 251.512C1105.07 200.219 1164.16 187.484 1185 189C1243.42 193.251 1246.21 262.539 1367.56 251.513C1370.19 249.309 1372.77 247.169 1375.3 245.091Z" fill="#EF7F1A"/>
<path d="M1628.91 576.67C1707.27 556.127 1680.97 455.55 1638.43 532.883C1637.05 535.392 1635.47 537.979 1633.32 539.862C1614.28 556.475 1576.48 545.779 1587.6 509.987C1597.19 479.133 1618.09 478.046 1621.94 476.663" stroke="#C05E05" stroke-width="15"/>
<path d="M1074.45 427.83C1074.45 479.83 1150.45 456.355 1116.45 420.33C1074.45 375.83 1127.76 348.565 1161.3 408.898" stroke="#FFAEAE" stroke-width="15"/>
</g>
</svg>
