<svg width="992" height="400" viewBox="0 0 992 400" fill="none" xmlns="http://www.w3.org/2000/svg">
<mask id="mask0_3124_88" style="mask-type:alpha" maskUnits="userSpaceOnUse" x="0" y="0" width="992" height="400">
<rect width="992" height="400" fill="#FDF1E6"/>
</mask>
<g mask="url(#mask0_3124_88)">
<path fill-rule="evenodd" clip-rule="evenodd" d="M571.567 201.191C487.483 311.411 474.978 251.5 439.873 224.82C430.895 217.997 368.021 186.803 343.925 224.82C300.341 293.582 428.987 376.395 386.161 348.723C348.158 324.168 244.047 313.111 339.45 490.602C413.631 658.208 274.528 354.342 358.732 373.479C362.979 374.444 366.803 377.348 369.775 380.688C423.788 441.376 471.159 445.452 508.48 428.667C552.715 408.772 619.59 402.917 634.438 449.07L650.419 498.75C656.222 516.789 679.815 511.73 685.547 491.218V491.218C691.025 471.621 715.691 471.35 715.853 490.808C716.618 582.426 722.511 659.965 748.937 402.571C753.655 356.617 642.524 348.723 642.524 292.003C642.524 284.296 649.434 273.575 660.72 273.575C685.911 273.575 737.651 412.957 744.331 297.698C748.408 227.361 741.218 208.025 726.113 208.34C705.054 208.778 684 205.944 672.94 187.187C655.798 158.115 623.47 133.155 571.567 201.191Z" fill="#EF7F1A"/>
<path d="M359.783 393.456C382.108 441.129 452.004 407.032 393.342 392.348C390.811 391.714 388.171 390.992 386.14 389.412C373.202 379.346 377.687 353.705 404.213 354.8C427.526 355.762 430.322 369.301 431.696 371.589" stroke="#C05E05" stroke-width="15"/>
<path d="M634.137 282.334C656.352 323.896 706.64 284.004 666.333 273.695C662.422 272.695 658.291 271.758 655.236 269.119C645.613 260.806 646.666 247.649 667.199 249.022C686.487 250.313 690.026 262.327 691.366 264.374" stroke="#FFAEAE" stroke-width="9"/>
</g>
</svg>
