<svg width="1920" height="580" viewBox="0 0 1920 580" fill="none" xmlns="http://www.w3.org/2000/svg">
<mask id="mask0_1192_890" style="mask-type:alpha" maskUnits="userSpaceOnUse" x="0" y="0" width="1920" height="580">
<path d="M0 60C0 26.8629 26.8629 0 60 0H1860C1893.14 0 1920 26.8629 1920 60V520C1920 553.137 1893.14 580 1860 580H60C26.8629 580 0 553.137 0 520V60Z" fill="#FDF1E6"/>
</mask>
<g mask="url(#mask0_1192_890)">
<path d="M1009.47 499.793C1009.47 499.793 1121.42 484.195 1094.72 389.692C1068.01 295.189 1102.62 181.049 1261.1 214.533C1332.15 229.546 1354.05 255.818 1368.7 287.599C1369.29 288.887 1369.84 290.153 1370.34 291.397C1374.2 250.12 1394.42 189.719 1440.83 150.476C1482.26 115.444 1693.18 100.43 1650.34 214.534C1634.22 257.464 1674.72 265.799 1716.59 247.564C1992.35 127.456 2105.94 880.972 1772.5 656C1685.72 597.447 1780.7 377.598 1423.37 480.275L1002.37 637.468C969.861 649.605 934.717 652.895 900.523 647.003L549.168 586.457C528.382 582.875 508.812 574.184 492.216 561.165C470.891 544.436 445.061 534.445 418.028 532.471L385.517 530.097C375.534 529.368 365.502 529.706 355.591 531.106L334.618 534.068C299.711 538.998 265.665 548.788 233.47 563.152L217 570.5L100.5 618C215.59 508.818 284.791 461.609 501 519C611.5 548.331 809.777 482.545 873 458C958.234 424.909 958.5 389.692 1023.5 372.5C1088.67 355.263 1087.81 417.64 1062.36 453.751C1045.2 478.11 1009.47 499.793 1009.47 499.793Z" fill="#EF7F1A"/>
</g>
</svg>
