<svg viewBox="0 0 1077 616" fill="none" xmlns="http://www.w3.org/2000/svg">
<path d="M504.568 72.9253C673.041 -50.9728 865.294 8.03076 954.894 66.9221C962.882 72.1725 971.238 77.103 979.663 81.6202C1189.45 194.11 1012.69 453.521 892.001 389.263C768.906 323.722 698.732 378.266 716 453.266C734.983 535.716 653.5 578.678 617.5 588.266C565 602.248 455.979 617.902 412.475 615.401C368.972 612.899 322.008 581.88 310.638 531.349C303.722 500.614 322.849 469.474 340.817 449.495C349.833 439.47 356.53 422.753 344.276 417.132C297.097 395.488 137.076 524.087 59.5035 487.322C-52.8143 434.09 19.2959 270.69 69.3907 195.644C166.726 72.1775 325.979 76.3258 436.356 91.4362C460.566 94.7505 484.882 87.4024 504.568 72.9253Z" fill="#EF7F1A"/>
</svg>
