<svg width="992" height="400" viewBox="0 0 992 400" fill="none" xmlns="http://www.w3.org/2000/svg">
<mask id="mask0_940_1861" style="mask-type:alpha" maskUnits="userSpaceOnUse" x="0" y="0" width="992" height="400">
<rect width="992" height="400" fill="#FDF1E6"/>
</mask>
<g mask="url(#mask0_940_1861)">
<path d="M384.48 311.087C394.812 359.529 382.81 511.82 717.5 469C668.238 379.737 854.315 358.507 856 256C859 194 829.209 124.006 788 177.5C737.522 243.025 694.098 253.646 623.411 140.724C606.961 114.444 567.516 125.262 533.034 147.873C482.583 180.957 434.909 249.777 405.5 205C348.99 118.959 254.359 432.305 207 434C150.55 436.021 96.694 401.665 108.474 410.164C259.589 532.592 269.613 313.719 362.243 298.189C372.428 296.482 382.178 300.295 384.48 311.087Z" fill="#E1E9B3"/>
<path d="M640.132 158.62C601.034 168.871 612.678 221.673 634.127 183.627C635.487 181.214 636.871 178.695 639.147 177.121C649.171 170.19 666.029 176.538 660.45 194.687C655.39 211.149 644.85 211.566 642.901 212.277" stroke="#FFAEAE" stroke-width="12"/>
<path d="M347.317 371.797C362.383 454.431 462.328 429.592 389.687 383.021C387.226 381.443 384.734 379.649 382.911 377.373C368.787 359.745 372.593 332.693 398.672 336.866C404.572 337.811 408.397 342.934 410.575 348.441C417.268 365.365 429.423 365.841 445.591 367.126" stroke="#F2994A" stroke-width="13"/>
</g>
</svg>
