<svg width="1920" height="580" viewBox="0 0 1920 580" fill="none" xmlns="http://www.w3.org/2000/svg">
<mask id="mask0_940_1823" style="mask-type:alpha" maskUnits="userSpaceOnUse" x="0" y="0" width="1920" height="580">
<rect width="1920" height="580" rx="60" fill="#FDF1E6"/>
</mask>
<g mask="url(#mask0_940_1823)">
<path d="M697.5 446.984C457.869 604.894 221 305 173 274.5C173 274.5 138.223 259.5 133.5 291C128.777 322.5 213.5 383.5 196.5 478C179.501 572.5 76.5002 602.5 126.5 663C176.5 723.5 879 658.5 1314 658.5C1542 658.5 1644 740.547 1759 649.5C1874 558.453 1985 369.363 1833 326C1731.51 297.046 1488.5 436.985 1752.5 199.986C2016.5 -37.0136 1486.9 113.878 1468.5 263C1444.5 457.509 1357.95 28.3048 1085.5 199.987C1049 222.986 1012 287.484 1040.5 420.984C1069 554.484 794 554.484 918.5 458.984C978.285 413.125 979 261.485 697.5 446.984Z" fill="#FFBC6D"/>
<path d="M989.743 540.615C1028.08 622.872 1133.55 573.409 1039.26 542.134C1036.55 541.232 1033.71 540.131 1031.44 538.378C1008.94 520.979 1012.91 476.669 1054.7 481.751C1090.5 486.105 1095.89 508.896 1098.18 512.853" stroke="#C05E05" stroke-width="15"/>
<path d="M1607.67 258.03C1525.18 328.695 1658.53 378.47 1640.37 296.531C1639.79 293.903 1639.21 291.101 1639.47 288.422C1641.68 265.671 1672.77 264.356 1671.73 301.199C1670.49 344.822 1731.32 331.061 1748.31 312.054" stroke="#093F44" stroke-width="15"/>
</g>
</svg>
