<svg width="1920" height="580" viewBox="0 0 1920 580" fill="none" xmlns="http://www.w3.org/2000/svg">
<mask id="mask0_940_1643" style="mask-type:alpha" maskUnits="userSpaceOnUse" x="0" y="0" width="1920" height="580">
<rect width="1920" height="580" rx="60" fill="#FDF1E6"/>
</mask>
<g mask="url(#mask0_940_1643)">
<path fill-rule="evenodd" clip-rule="evenodd" d="M1109.94 336.566C1167.99 344.875 1211.83 313.435 1360.54 250.648C1387.45 239.283 1454.65 198.237 1530.17 250.648C1666.76 345.445 1500.43 473.598 1609.48 439.007C1818.37 372.747 1940.78 81.103 1886.67 317.017C1883.67 330.08 1883.03 344.437 1884.21 357.786C1924.54 810.742 1335.3 649.383 1174.92 597.355C1148.12 588.658 1122.98 576.553 1098.68 562.269L1062.03 540.719C1024.63 518.732 982.035 507.139 938.653 507.139C918.877 507.139 899.164 509.966 880.832 517.385C835.915 535.565 762.421 574.078 862.854 600.997C965.564 628.528 244.754 700.502 890.714 473.598C912.185 466.056 930.484 442.981 918.577 409.699C906.67 376.417 883.952 334.283 890.714 345.445C895.255 352.943 866.192 303.8 922.011 271.522C937.294 262.685 955.961 260.907 972.418 267.295C1018.19 285.063 1061 329.559 1109.94 336.566Z" fill="#EF7F1A"/>
<path d="M1511.73 580.58C1595.81 603.829 1625.65 495.798 1543.96 545.162C1541.51 546.643 1538.84 548.086 1536.03 548.66C1509.27 554.137 1479.53 523.632 1509.33 496.241C1534.92 472.723 1554.95 483.005 1559.27 483.797" stroke="#FFBC6D" stroke-width="15"/>
<path d="M1258.47 414.613C1258.59 359.938 1178.25 366.196 1220.89 408.126C1222.89 410.095 1224.92 412.187 1226.26 414.658C1234 428.991 1227.54 442.636 1205.82 428.953C1186.61 416.854 1189.62 403.004 1189.37 400.231" stroke="#C05E05" stroke-width="10"/>
</g>
</svg>
