<svg width="1500" height="580" viewBox="0 0 1500 580" fill="none" xmlns="http://www.w3.org/2000/svg">
<mask id="mask0_940_869" style="mask-type:alpha" maskUnits="userSpaceOnUse" x="-210" y="0" width="1920" height="580">
<path d="M-210 60C-210 26.8629 -183.137 0 -150 0H1650C1683.14 0 1710 26.8629 1710 60V520C1710 553.137 1683.14 580 1650 580H-150C-183.137 580 -210 553.137 -210 520V60Z" fill="#FDF1E6"/>
</mask>
<g mask="url(#mask0_940_869)">
<path fill-rule="evenodd" clip-rule="evenodd" d="M1165.3 245.091C1226.1 195.196 1339.12 149.881 1367 223.425C1387.1 271.604 1192.91 382.808 1400.03 349.5C1456 340.5 1407.69 577.667 1427 575C1266.5 613.499 1376 434.5 1376 417.5C1340.67 415.833 1275.76 530 1299 575C1316.36 608.623 939.423 606.155 896.534 575C953.5 506 913.449 452.671 898.292 400.32C882.571 346.016 870.758 273.273 878.001 251.512C895.071 200.219 954.164 187.484 975.001 189C1033.42 193.251 1036.21 262.539 1157.56 251.513C1160.19 249.309 1162.77 247.169 1165.3 245.091Z" fill="#EF7F1A"/>
<path d="M1418.91 576.67C1497.27 556.127 1470.97 455.55 1428.43 532.883C1427.05 535.392 1425.47 537.979 1423.32 539.862C1404.28 556.475 1366.48 545.779 1377.6 509.987C1387.19 479.133 1408.09 478.046 1411.94 476.663" stroke="#C05E05" stroke-width="15"/>
<path d="M864.449 427.83C864.449 479.83 940.449 456.355 906.449 420.33C864.449 375.83 917.758 348.565 951.298 408.898" stroke="#FFAEAE" stroke-width="15"/>
</g>
</svg>
