<svg width="992" height="400" viewBox="0 0 992 400" fill="none" xmlns="http://www.w3.org/2000/svg">
<mask id="mask0_3354_67" style="mask-type:alpha" maskUnits="userSpaceOnUse" x="0" y="0" width="992" height="400">
<rect width="992" height="400" fill="#FDF1E6"/>
</mask>
<g mask="url(#mask0_3354_67)">
<path d="M569.061 268.784C604.053 288.315 614.607 250.344 589.611 255.849C586.156 256.61 582.692 257.744 579.164 257.465C561.765 256.09 559.213 239.161 574.238 230.831C587.66 223.39 597.93 231.244 599.845 232.115" stroke="#0E5F66" stroke-width="10"/>
<path d="M311.376 163.004C335.626 167.719 336.935 142.587 323.473 149.406C320.463 150.93 317.748 153.237 314.421 153.796C304.441 155.474 300.921 145.672 308.643 137.379C315.876 129.611 322.22 132.267 323.556 132.405" stroke="#FFD3D3" stroke-width="8"/>
</g>
</svg>
