<svg width="1920" height="580" viewBox="0 0 1920 580" fill="none" xmlns="http://www.w3.org/2000/svg">
<mask id="mask0_3353_60" style="mask-type:alpha" maskUnits="userSpaceOnUse" x="0" y="0" width="1920" height="580">
<path d="M0 0H1920V580H1821.19H1601.96H1368.52H1065.29H854.706H639.794H444.027H277.903H111.161H0V0Z" fill="white"/>
</mask>
<g mask="url(#mask0_3353_60)">
<path d="M1699.23 141.557C1688.78 82.2947 1627.74 105.741 1665.26 130.819C1668.06 132.694 1670.91 134.639 1673.07 137.226C1691.9 159.738 1672.71 179.203 1646.37 168.584C1623.69 159.44 1624.17 143.605 1623.37 140.617" stroke="#0E5F66" stroke-width="15"/>
<path d="M1100.82 466.7C1052.52 448.16 1053.08 512.234 1088.33 498.184C1104.94 494.048 1122.98 528.315 1100.82 539.499C1076.5 551.775 1065 526.499 1065 526.499" stroke="#FFD3D3" stroke-width="15"/>
</g>
</svg>
