<svg width="540" height="55" viewBox="0 0 540 55" fill="none" xmlns="http://www.w3.org/2000/svg">
<path fill-rule="evenodd" clip-rule="evenodd" d="M0 30.9404C20.7901 11.5039 64.2054 -13.055 102.24 8.2022C104.254 9.32785 106.234 10.5207 108.214 11.7132C112.586 14.3475 116.956 16.9801 121.685 18.8832C140.796 26.5756 173.376 35.7425 197.5 21.0001C224.5 4.50008 263 4.50008 270 4.50008C277 4.50008 315.5 4.50008 342.5 21.0001C366.624 35.7425 399.204 26.5756 418.315 18.8832C423.044 16.9801 427.414 14.3475 431.786 11.7132C433.766 10.5207 435.746 9.32785 437.76 8.2022C475.795 -13.055 519.21 11.5039 540 30.9404V54.4404H270H0V30.9404Z" fill="white"/>
</svg>
