<svg width="1500" height="81" viewBox="0 0 1500 81" fill="none" xmlns="http://www.w3.org/2000/svg">
<path fill-rule="evenodd" clip-rule="evenodd" d="M0 36.7146C40.1494 17.048 136.508 -10.4854 200.747 36.7146C228.291 50.7146 297.946 69.0146 356.209 30.2146C429.038 -18.2854 521.475 0.71455 551.821 24.2146C579.568 45.7021 626.984 49.1269 648.459 36.2146C674.985 20.2655 701.048 7.79413 749.767 7.71498V7.71462C749.84 7.71462 749.912 7.71465 749.985 7.71471C750.068 7.71463 750.151 7.7146 750.233 7.7146V7.715C798.952 7.79415 825.015 20.2655 851.541 36.2146C873.016 49.1269 920.432 45.7021 948.179 24.2146C978.525 0.714573 1070.96 -18.2854 1143.79 30.2146C1202.05 69.0146 1271.71 50.7146 1299.25 36.7146C1363.49 -10.4854 1459.85 17.048 1500 36.7146V80.7146H749.767L0 80.7146V36.7146Z" fill="#FDF1E6"/>
</svg>
