<svg width="1500" height="154" viewBox="0 0 1500 154" fill="none" xmlns="http://www.w3.org/2000/svg">
<path fill-rule="evenodd" clip-rule="evenodd" d="M0 42.6101V154H404.31H749.759H750.241H1095.69H1500V42.6101V0C1448.19 0 1440.14 4.95948 1417.39 18.9726C1404.55 26.884 1387.02 37.6811 1354.29 52.1007C1303.41 74.5187 1248.6 63.3664 1209.64 47.0656C1200.68 43.3211 1191.89 39.144 1183.1 34.9689C1164.74 26.2498 1146.39 17.5391 1126.69 12.7936C1026.27 -11.3988 973.39 17.4962 936.273 37.7794C925.063 43.9052 915.29 49.2456 906.079 52.1007C855.342 67.8278 822.397 44.4762 794.956 25.0259C778.995 13.7125 764.896 3.71906 750.241 3.50355V3.5C750.161 3.5 750.08 3.5003 750 3.50089C749.92 3.5003 749.839 3.5 749.759 3.5V3.50355C735.104 3.71906 721.005 13.7125 705.044 25.0259C677.603 44.4762 644.658 67.8278 593.921 52.1007C584.71 49.2456 574.937 43.9052 563.727 37.7794C526.611 17.4962 473.735 -11.3988 373.306 12.7936C353.607 17.5391 335.264 26.2497 316.904 34.9689C308.112 39.144 299.316 43.321 290.365 47.0656C251.4 63.3664 196.592 74.5187 145.706 52.1007C112.976 37.6811 95.4484 26.884 82.6056 18.9727C59.8576 4.95949 51.8067 0 0 0V42.6101Z" fill="white"/>
</svg>
