<svg width="1500" height="154" viewBox="0 0 1500 154" fill="none" xmlns="http://www.w3.org/2000/svg">
<path fill-rule="evenodd" clip-rule="evenodd" d="M0 42.6101V154H404.31H749.759H750.241H1095.69H1500V42.6101V0C1448.19 0 1440.14 4.95948 1417.39 18.9726C1404.55 26.884 1387.02 37.6811 1354.29 52.1007C1303.41 74.5187 1248.6 63.3664 1209.64 47.0656C1200.68 43.3211 1191.89 39.144 1183.1 34.9689C1164.74 26.2498 1146.39 17.5391 1126.69 12.7936C1026.27 -11.3988 973.39 17.4962 936.273 37.7794C925.063 43.9052 915.29 49.2456 906.079 52.1007C849.426 69.6618 814.956 63.6868 785.562 58.5917C773.32 56.4697 761.958 54.5003 750.241 54.4473V54.4463C750.161 54.4463 750.08 54.4463 750 54.4465C749.919 54.4463 749.839 54.4463 749.759 54.4463V54.4473C738.042 54.5003 726.68 56.4697 714.438 58.5917C685.044 63.6868 650.574 69.6618 593.921 52.1007C584.71 49.2456 574.937 43.9052 563.727 37.7794C526.611 17.4962 473.735 -11.3988 373.306 12.7936C353.607 17.5391 335.264 26.2497 316.904 34.9689C308.112 39.144 299.316 43.321 290.365 47.0656C251.4 63.3664 196.592 74.5187 145.706 52.1007C112.976 37.6811 95.4484 26.884 82.6056 18.9727C59.8576 4.95949 51.8067 0 0 0V42.6101Z" fill="white"/>
</svg>
